<svg width="40" height="40" viewBox="0 0 40 40" fill="none" xmlns="http://www.w3.org/2000/svg">
    <g clip-path="url(#clip0_391_41)">
        <path d="M38.0001 19.9999C38.0001 10.0587 29.9413 1.99988 20.0001 1.99988C10.059 1.99988 2.00013 10.0587 2.00013 19.9999C2.00013 29.941 10.059 37.9999 20.0001 37.9999C29.9351 37.9852 37.9851 29.9348 38.0001 19.9999ZM19.2501 25.66L12.25 17.6602C12.0885 17.4781 11.9995 17.2434 11.9999 16.9999C12.0021 16.7131 12.1255 16.4407 12.3401 16.2499C12.5386 16.0745 12.799 15.9855 13.0637 16.0023C13.3281 16.0192 13.5753 16.1407 13.75 16.34L20.0001 23.48L26.2499 16.34C26.6146 15.9258 27.2456 15.8855 27.6602 16.2499C28.0743 16.6146 28.1146 17.2456 27.7499 17.6602L20.7501 25.66C20.5608 25.8761 20.2872 25.9999 20.0001 25.9999C19.7126 25.9999 19.4395 25.8761 19.2501 25.66Z" fill="#E2EAFC"/>
        <path d="M40 19.9999C40 8.95422 31.0458 0 20.0001 0C8.95447 0 -0.000118256 8.95422 -0.000118256 19.9999C-0.000118256 31.0455 8.95447 40.0001 20.0001 40.0001C31.041 39.9891 39.989 31.0411 40 19.9999ZM2.00013 19.9999C2.00013 10.0587 10.059 1.99988 20.0001 1.99988C29.9413 1.99988 38.0001 10.0587 38.0001 19.9999C38.0001 29.941 29.9413 37.9999 20.0001 37.9999C10.0652 37.9852 2.01477 29.9348 2.00013 19.9999Z" fill="#002F4B"/>
        <path d="M27.7499 17.6602C28.1146 17.2456 28.0743 16.6146 27.6602 16.2499C27.2456 15.8855 26.6146 15.9258 26.2499 16.34L20.0001 23.48L13.75 16.34C13.5753 16.1408 13.3281 16.0192 13.0637 16.0023C12.799 15.9855 12.5386 16.0745 12.3401 16.2499C12.1255 16.4407 12.0021 16.7131 11.9999 16.9999C11.9995 17.2434 12.0885 17.4782 12.25 17.6602L19.2501 25.66C19.4395 25.8761 19.7126 25.9999 20.0001 25.9999C20.2872 25.9999 20.5608 25.8761 20.7501 25.66L27.7499 17.6602Z" fill="#002F4B"/>
    </g>
    <defs>
        <clipPath id="clip0_391_41">
            <rect width="40" height="40" fill="white" transform="matrix(0 1 -1 0 40 0)"/>
        </clipPath>
    </defs>
</svg>
