<svg width="16" height="15" viewBox="0 0 16 15" fill="none" xmlns="http://www.w3.org/2000/svg">
<path d="M11.7225 12.452C10.5431 13.1998 9.1444 13.6329 7.64455 13.6329C3.90643 13.6329 0.796538 10.9432 0.144531 7.39364C0.447259 5.74552 1.27985 4.28282 2.45917 3.18865L0.291514 1.021L1.27192 0.0405922L14.9976 13.7662L14.0172 14.7466L11.7225 12.452ZM3.44021 4.16968C2.51897 5.00883 1.84726 6.12291 1.55955 7.39364C2.19556 10.2026 4.70816 12.2464 7.64455 12.2464C8.75333 12.2464 9.80173 11.9549 10.7115 11.441L9.30537 10.0348C8.82446 10.3379 8.25496 10.5133 7.64455 10.5133C5.92161 10.5133 4.52491 9.1165 4.52491 7.39364C4.52491 6.78316 4.70023 6.21366 5.00328 5.73277L3.44021 4.16968ZM8.2779 9.00738L6.03078 6.76029C5.95372 6.95648 5.9114 7.17007 5.9114 7.39364C5.9114 8.35081 6.68738 9.12676 7.64455 9.12676C7.86806 9.12676 8.08172 9.0844 8.2779 9.00738ZM13.7496 10.5772L12.7577 9.58534C13.2124 8.93723 13.5476 8.1967 13.7295 7.39364C13.0935 4.58458 10.5809 2.54087 7.64455 2.54087C7.05813 2.54087 6.48863 2.62238 5.94761 2.7752L4.85364 1.68123C5.71799 1.34115 6.65945 1.15437 7.64455 1.15437C11.3826 1.15437 14.4925 3.84401 15.1445 7.39364C14.9281 8.57188 14.4408 9.65543 13.7496 10.5772ZM7.45225 4.27982C7.51582 4.27595 7.57994 4.27399 7.64455 4.27399C9.36741 4.27399 10.7642 5.67069 10.7642 7.39364C10.7642 7.45818 10.7622 7.52231 10.7583 7.58588L7.45225 4.27982Z" fill="#00598F"/>
</svg>
