<svg width="28" height="29" viewBox="0 0 28 29" fill="none" xmlns="http://www.w3.org/2000/svg">
    <path d="M14 27.3333C21.0875 27.3333 26.8333 21.5875 26.8333 14.5C26.8333 7.41249 21.0875 1.66666 14 1.66666M14 27.3333C6.91249 27.3333 1.16666 21.5875 1.16666 14.5C1.16666 7.41249 6.91249 1.66666 14 1.66666M14 27.3333C17.5 27.3333 18.6667 21.5 18.6667 14.5C18.6667 7.49999 17.5 1.66666 14 1.66666M14 27.3333C10.5 27.3333 9.33332 21.5 9.33332 14.5C9.33332 7.49999 10.5 1.66666 14 1.66666M2.33332 19.1667H25.6667M2.33332 9.83332H25.6667" stroke="#00598F"/>
</svg>
