<svg width="20" height="14" viewBox="0 0 20 14" fill="none" xmlns="http://www.w3.org/2000/svg">
<path d="M1.25 2.5H18.75C19.4404 2.5 20 1.94035 20 1.25C20 0.559648 19.4404 0 18.75 0H1.25C0.559648 0 0 0.559648 0 1.25C0 1.94035 0.559648 2.5 1.25 2.5Z" fill="#2A9134"/>
<path d="M18.75 5.5H1.25C0.559648 5.5 0 6.05965 0 6.75C0 7.44035 0.559648 8 1.25 8H18.75C19.4404 8 20 7.44035 20 6.75C20 6.05965 19.4404 5.5 18.75 5.5Z" fill="#2A9134"/>
<path d="M18.75 11H1.25C0.559648 11 0 11.5596 0 12.25C0 12.9404 0.559648 13.5 1.25 13.5H18.75C19.4404 13.5 20 12.9404 20 12.25C20 11.5596 19.4404 11 18.75 11Z" fill="#2A9134"/>
</svg>
