<svg width="15" height="15" viewBox="0 0 15 15" fill="none" xmlns="http://www.w3.org/2000/svg">
    <g clip-path="url(#clip0_2442_2870)">
        <path d="M0.740234 11H2.25023V11.25C2.25101 11.4095 2.30262 11.5646 2.39757 11.6928C2.49252 11.821 2.62587 11.9155 2.77823 11.9628L1.40023 13.8C1.28089 13.9591 1.22964 14.1592 1.25777 14.3561C1.2859 14.553 1.3911 14.7307 1.55023 14.85C1.70936 14.9693 1.90939 15.0206 2.1063 14.9925C2.30321 14.9643 2.48089 14.8591 2.60023 14.7L4.62524 12H6.75024V14.25C6.75024 14.4489 6.82925 14.6397 6.96991 14.7803C7.11056 14.921 7.30132 15 7.50024 15C7.69915 15 7.88991 14.921 8.03057 14.7803C8.17122 14.6397 8.25024 14.4489 8.25024 14.25V12H10.3752L12.4002 14.7C12.4593 14.7788 12.5334 14.8452 12.6181 14.8954C12.7029 14.9455 12.7967 14.9785 12.8942 14.9925C12.9917 15.0064 13.091 15.001 13.1864 14.9765C13.2818 14.9521 13.3714 14.9091 13.4502 14.85C13.529 14.7909 13.5954 14.7169 13.6456 14.6321C13.6958 14.5474 13.7288 14.4536 13.7427 14.3561C13.7566 14.2586 13.7512 14.1593 13.7268 14.0639C13.7023 13.9685 13.6593 13.8788 13.6002 13.8L12.2225 11.9628C12.3748 11.9155 12.5081 11.8209 12.603 11.6927C12.6979 11.5646 12.7495 11.4095 12.7502 11.25V11H14.2427C14.4416 11 14.6324 10.921 14.7731 10.7803C14.9137 10.6397 14.9927 10.4489 14.9927 10.25V2.25C14.9927 2.05109 14.9137 1.86032 14.7731 1.71967C14.6324 1.57902 14.4416 1.5 14.2427 1.5H8.25024V0.75C8.25024 0.551088 8.17122 0.360322 8.03057 0.21967C7.88991 0.0790176 7.69915 0 7.50024 0C7.30132 0 7.11056 0.0790176 6.96991 0.21967C6.82925 0.360322 6.75024 0.551088 6.75024 0.75V1.5H0.740234C0.541322 1.5 0.350557 1.57902 0.209904 1.71967C0.069252 1.86032 -0.00976562 2.05109 -0.00976562 2.25V10.25C-0.00976562 10.4489 0.069252 10.6397 0.209904 10.7803C0.350557 10.921 0.541322 11 0.740234 11ZM2.20023 14.4C2.15934 14.4515 2.10028 14.4854 2.03519 14.4947C1.97009 14.504 1.90391 14.488 1.85023 14.45C1.79719 14.4102 1.76212 14.351 1.75275 14.2854C1.74337 14.2197 1.76045 14.153 1.80023 14.1L3.37523 12H4.00024L2.20023 14.4ZM7.75024 14.25C7.75024 14.3163 7.7239 14.3799 7.67701 14.4268C7.63013 14.4737 7.56654 14.5 7.50024 14.5C7.43393 14.5 7.37034 14.4737 7.32346 14.4268C7.27657 14.3799 7.25024 14.3163 7.25024 14.25V12H7.75024V14.25ZM13.1502 14.45C13.0967 14.4885 13.0304 14.5047 12.9652 14.4954C12.8999 14.4861 12.8408 14.4519 12.8002 14.4L11.0002 12H11.6252L13.2002 14.1C13.24 14.153 13.2571 14.2197 13.2477 14.2854C13.2383 14.351 13.2033 14.4102 13.1502 14.45ZM12.2502 11.25C12.2502 11.3163 12.2239 11.3799 12.177 11.4268C12.1301 11.4737 12.0665 11.5 12.0002 11.5H3.00023C2.93393 11.5 2.87034 11.4737 2.82346 11.4268C2.77657 11.3799 2.75023 11.3163 2.75023 11.25V10.25C2.75023 10.1837 2.77657 10.1201 2.82346 10.0732C2.87034 10.0263 2.93393 10 3.00023 10H12.0002C12.0665 10 12.1301 10.0263 12.177 10.0732C12.2239 10.1201 12.2502 10.1837 12.2502 10.25V11.25ZM7.25024 0.75C7.25024 0.683696 7.27657 0.620107 7.32346 0.573223C7.37034 0.526339 7.43393 0.5 7.50024 0.5C7.56654 0.5 7.63013 0.526339 7.67701 0.573223C7.7239 0.620107 7.75024 0.683696 7.75024 0.75V1.5H7.25024V0.75ZM0.490234 2.25C0.490234 2.1837 0.516574 2.12011 0.563458 2.07322C0.610342 2.02634 0.67393 2 0.740234 2H14.2427C14.309 2 14.3726 2.02634 14.4195 2.07322C14.4664 2.12011 14.4927 2.1837 14.4927 2.25V10.25C14.4927 10.3163 14.4664 10.3799 14.4195 10.4268C14.3726 10.4737 14.309 10.5 14.2427 10.5H12.7502V10.25C12.7502 10.0511 12.6712 9.86032 12.5306 9.71967C12.3899 9.57902 12.1991 9.5 12.0002 9.5H3.00023C2.80132 9.5 2.61056 9.57902 2.4699 9.71967C2.32925 9.86032 2.25023 10.0511 2.25023 10.25V10.5H0.740234C0.67393 10.5 0.610342 10.4737 0.563458 10.4268C0.516574 10.3799 0.490234 10.3163 0.490234 10.25V2.25Z" fill="#008BF8"/>
        <path d="M3.21454 6.80352C3.03823 6.6158 2.79924 6.49918 2.54278 6.47571C2.28631 6.45225 2.03013 6.52356 1.82268 6.67617C1.61523 6.82878 1.47088 7.05211 1.41693 7.30393C1.36298 7.55575 1.40316 7.81862 1.52988 8.04282C1.6566 8.26703 1.86107 8.43704 2.10464 8.5207C2.34821 8.60437 2.61399 8.5959 2.85174 8.49688C3.08948 8.39787 3.28271 8.21518 3.39489 7.98336C3.50707 7.75154 3.53042 7.48665 3.46054 7.23877L5.28554 6.19802C5.45909 6.37845 5.69472 6.48619 5.94472 6.49942C6.19473 6.51265 6.44041 6.43038 6.63204 6.26927L7.82179 7.13477C7.75934 7.28985 7.73677 7.45811 7.75614 7.62417C7.77551 7.79022 7.8362 7.94877 7.93266 8.08531C8.02913 8.22186 8.15828 8.33204 8.30832 8.40578C8.45836 8.47952 8.62449 8.51446 8.79152 8.50742C8.95856 8.50038 9.12116 8.45157 9.26446 8.36547C9.40776 8.27936 9.52718 8.1587 9.61181 8.01452C9.69644 7.87035 9.74357 7.70725 9.7489 7.54016C9.75422 7.37306 9.71757 7.2073 9.64229 7.05802L11.9335 5.07327C12.1383 5.21878 12.3891 5.2844 12.6389 5.25779C12.8886 5.23117 13.12 5.11415 13.2895 4.92878C13.4589 4.7434 13.5548 4.50246 13.5589 4.25133C13.5631 4.0002 13.4752 3.75622 13.312 3.56535C13.1487 3.37448 12.9213 3.24988 12.6726 3.21504C12.4239 3.18019 12.171 3.23749 11.9616 3.37615C11.7522 3.51482 11.6007 3.72527 11.5356 3.96786C11.4706 4.21046 11.4965 4.46846 11.6085 4.69327L9.31729 6.67852C9.13951 6.55418 8.92564 6.49204 8.70891 6.50176C8.49217 6.51148 8.28472 6.59251 8.11879 6.73227L6.92904 5.86677C6.9901 5.71883 7.01485 5.55841 7.0012 5.39893C6.98755 5.23946 6.93591 5.08558 6.8506 4.95016C6.76529 4.81474 6.64878 4.70172 6.51083 4.62056C6.37288 4.5394 6.2175 4.49245 6.05769 4.48365C5.89788 4.47486 5.73828 4.50446 5.59226 4.56999C5.44623 4.63552 5.31803 4.73507 5.21836 4.86031C5.1187 4.98555 5.05048 5.13283 5.01941 5.28984C4.98834 5.44685 4.99533 5.60902 5.03979 5.76277L3.21454 6.80352ZM2.49979 8.00077C2.4009 8.00077 2.30423 7.97145 2.222 7.91651C2.13978 7.86157 2.07569 7.78348 2.03785 7.69212C2 7.60075 1.9901 7.50022 2.00939 7.40323C2.02869 7.30624 2.07631 7.21715 2.14623 7.14722C2.21616 7.07729 2.30525 7.02967 2.40224 7.01038C2.49923 6.99109 2.59977 7.00099 2.69113 7.03883C2.78249 7.07668 2.86058 7.14076 2.91552 7.22299C2.97046 7.30521 2.99979 7.40188 2.99979 7.50077C2.99979 7.63338 2.94711 7.76056 2.85334 7.85433C2.75957 7.94809 2.6324 8.00077 2.49979 8.00077ZM12.4998 3.75077C12.5987 3.75077 12.6953 3.7801 12.7776 3.83504C12.8598 3.88998 12.9239 3.96807 12.9617 4.05943C12.9996 4.15079 13.0095 4.25133 12.9902 4.34832C12.9709 4.44531 12.9233 4.5344 12.8533 4.60433C12.7834 4.67425 12.6943 4.72187 12.5973 4.74117C12.5003 4.76046 12.3998 4.75056 12.3084 4.71271C12.2171 4.67487 12.139 4.61078 12.0841 4.52856C12.0291 4.44633 11.9998 4.34966 11.9998 4.25077C11.9998 4.11817 12.0525 3.99099 12.1462 3.89722C12.24 3.80345 12.3672 3.75077 12.4998 3.75077ZM8.74979 7.00077C8.86297 6.99999 8.9731 7.03737 9.06243 7.10687C9.15176 7.17637 9.21507 7.27394 9.24214 7.38383C9.26921 7.49373 9.25847 7.60954 9.21164 7.71258C9.16481 7.81561 9.08464 7.89987 8.98405 7.95175C8.88346 8.00363 8.76832 8.02011 8.65722 7.99852C8.54612 7.97693 8.44553 7.91854 8.37169 7.83277C8.29784 7.747 8.25505 7.63885 8.25022 7.52577C8.24538 7.41269 8.27879 7.30129 8.34504 7.20952L8.34704 7.20802V7.20627C8.39331 7.14279 8.45388 7.0911 8.52386 7.0554C8.59383 7.01969 8.67123 7.00098 8.74979 7.00077ZM5.99979 5.00077C6.09176 5.00051 6.18201 5.02571 6.26056 5.07356C6.3391 5.12141 6.40288 5.19006 6.44483 5.27191C6.48677 5.35377 6.50526 5.44563 6.49824 5.53733C6.49122 5.62904 6.45896 5.71701 6.40504 5.79152L6.40254 5.79352V5.79527C6.35213 5.86443 6.28483 5.91949 6.20705 5.95519C6.12928 5.99089 6.04365 6.00603 5.95835 5.99916C5.87305 5.99229 5.79095 5.96365 5.71989 5.91597C5.64883 5.86829 5.59119 5.80317 5.5525 5.72684C5.51381 5.65052 5.49535 5.56554 5.4989 5.48004C5.50245 5.39454 5.52788 5.31138 5.57277 5.23852C5.61765 5.16566 5.68048 5.10554 5.75525 5.06392C5.83002 5.02229 5.91421 5.00055 5.99979 5.00077Z" fill="#008BF8"/>
        <path d="M1.25 3H4C4.0663 3 4.12989 2.97366 4.17678 2.92678C4.22366 2.87989 4.25 2.8163 4.25 2.75C4.25 2.6837 4.22366 2.62011 4.17678 2.57322C4.12989 2.52634 4.0663 2.5 4 2.5H1.25C1.1837 2.5 1.12011 2.52634 1.07322 2.57322C1.02634 2.62011 1 2.6837 1 2.75C1 2.8163 1.02634 2.87989 1.07322 2.92678C1.12011 2.97366 1.1837 3 1.25 3Z" fill="#008BF8"/>
        <path d="M1.25 4H3.25C3.3163 4 3.37989 3.97366 3.42678 3.92678C3.47366 3.87989 3.5 3.8163 3.5 3.75C3.5 3.6837 3.47366 3.62011 3.42678 3.57322C3.37989 3.52634 3.3163 3.5 3.25 3.5H1.25C1.1837 3.5 1.12011 3.52634 1.07322 3.57322C1.02634 3.62011 1 3.6837 1 3.75C1 3.8163 1.02634 3.87989 1.07322 3.92678C1.12011 3.97366 1.1837 4 1.25 4Z" fill="#008BF8"/>
    </g>
    <defs>
        <clipPath id="clip0_2442_2870">
            <rect width="15" height="15" fill="white"/>
        </clipPath>
    </defs>
</svg>
