<svg width="20" height="20" viewBox="0 0 20 20" fill="none" xmlns="http://www.w3.org/2000/svg">
    <path d="M16.9146 9.37577H4.51145L9.3752 4.50952C9.43867 4.45295 9.48992 4.38402 9.52583 4.30696C9.56174 4.22989 9.58155 4.14631 9.58405 4.06133C9.58655 3.97635 9.57168 3.89175 9.54036 3.81271C9.50904 3.73367 9.46192 3.66186 9.40189 3.60165C9.34186 3.54145 9.27017 3.49413 9.19122 3.46258C9.11227 3.43104 9.02772 3.41593 8.94273 3.41819C8.85774 3.42045 8.7741 3.44002 8.69694 3.47571C8.61978 3.5114 8.5507 3.56246 8.49395 3.62577L2.7027 9.41702C2.5479 9.57185 2.46094 9.78183 2.46094 10.0008C2.46094 10.2197 2.5479 10.4297 2.7027 10.5845L8.49395 16.3758C8.5507 16.4391 8.61978 16.4901 8.69694 16.5258C8.7741 16.5615 8.85774 16.5811 8.94273 16.5833C9.02772 16.5856 9.11227 16.5705 9.19122 16.539C9.27017 16.5074 9.34186 16.4601 9.40189 16.3999C9.46192 16.3397 9.50904 16.2679 9.54036 16.1888C9.57168 16.1098 9.58655 16.0252 9.58405 15.9402C9.58155 15.8552 9.56174 15.7716 9.52583 15.6946C9.48992 15.6175 9.43867 15.5486 9.3752 15.492L4.51145 10.6258H16.9146C17.0803 10.6258 17.2393 10.5599 17.3565 10.4427C17.4737 10.3255 17.5396 10.1665 17.5396 10.0008C17.5396 9.83501 17.4737 9.67604 17.3565 9.55883C17.2393 9.44162 17.0803 9.37577 16.9146 9.37577Z" fill="#F8FAFF"/>
</svg>
