<svg width="20" height="20" viewBox="0 0 20 20" fill="none" xmlns="http://www.w3.org/2000/svg">
    <path d="M10.7804 15.5558L19.6805 6.65555C19.8865 6.4497 20 6.1749 20 5.8819C20 5.58889 19.8865 5.3141 19.6805 5.10824L19.0252 4.4528C18.5982 4.0263 17.9042 4.0263 17.4779 4.4528L10.0041 11.9266L2.52209 4.44451C2.31608 4.23866 2.04145 4.125 1.7486 4.125C1.45543 4.125 1.1808 4.23866 0.974625 4.44451L0.319508 5.09995C0.113495 5.30597 0 5.5806 0 5.8736C0 6.16661 0.113495 6.4414 0.319508 6.64726L9.22773 15.5558C9.43439 15.7621 9.71033 15.8755 10.0037 15.8748C10.2981 15.8755 10.5739 15.7621 10.7804 15.5558Z" fill="#031B3C"/>
</svg>
