<svg xmlns="http://www.w3.org/2000/svg" width="20" height="20" viewBox="0 0 20 20" fill="none">
  <path d="M17.3599 2.64068C17.1577 2.43762 16.9174 2.27649 16.6528 2.16654C16.3882 2.0566 16.1045 2 15.8179 2C15.5313 2 15.2476 2.0566 14.983 2.16654C14.7184 2.27649 14.4781 2.43762 14.2759 2.64068L6.4479 10.4887C6.38521 10.5526 6.34577 10.6357 6.3359 10.7247L5.9999 13.5527C5.99278 13.6122 5.99914 13.6727 6.01853 13.7294C6.03792 13.7862 6.06983 13.8379 6.1119 13.8807C6.14942 13.919 6.19424 13.9493 6.24372 13.9699C6.29319 13.9905 6.34631 14.001 6.3999 14.0007H6.4439L9.2959 13.7047C9.38681 13.6946 9.47152 13.6536 9.5359 13.5887L17.3599 5.73668C17.7688 5.32525 17.9983 4.76874 17.9983 4.18868C17.9983 3.60861 17.7688 3.05211 17.3599 2.64068ZM9.0719 12.9167L6.8559 13.1527L7.1119 10.9567L13.2959 4.75668L15.2519 6.71668L9.0719 12.9167ZM15.8159 6.15268L13.8599 4.18868L14.8399 3.20068C15.1031 2.94697 15.4544 2.80521 15.8199 2.80521C16.1854 2.80521 16.5367 2.94697 16.7999 3.20068C17.0593 3.46086 17.205 3.81327 17.205 4.18068C17.205 4.54808 17.0593 4.9005 16.7999 5.16068L15.8159 6.15268Z" fill="#40D88A"/>
  <path d="M15.6 15.2016C15.6 15.732 15.3893 16.2407 15.0142 16.6158C14.6391 16.9908 14.1304 17.2016 13.6 17.2016H4.8C4.26957 17.2016 3.76086 16.9908 3.38579 16.6158C3.01071 16.2407 2.8 15.732 2.8 15.2016V6.40156C2.8 5.87113 3.01071 5.36242 3.38579 4.98735C3.76086 4.61228 4.26957 4.40156 4.8 4.40156H10.8V3.60156H4.8C4.05739 3.60156 3.3452 3.89656 2.8201 4.42166C2.295 4.94677 2 5.65896 2 6.40156V15.2016C2 15.9442 2.295 16.6564 2.8201 17.1815C3.3452 17.7066 4.05739 18.0016 4.8 18.0016H13.6C14.3426 18.0016 15.0548 17.7066 15.5799 17.1815C16.105 16.6564 16.4 15.9442 16.4 15.2016V9.20156H15.6V15.2016Z" fill="#40D88A"/>
</svg>