<svg width="20" height="21" viewBox="0 0 20 21" fill="none" xmlns="http://www.w3.org/2000/svg">
    <path d="M9.1665 2.16602H7.49984C3.33317 2.16602 1.6665 3.83268 1.6665 7.99935V12.9993C1.6665 17.166 3.33317 18.8327 7.49984 18.8327H12.4998C16.6665 18.8327 18.3332 17.166 18.3332 12.9993V11.3327" stroke="#F8FAFF" stroke-width="1.5" stroke-linecap="round" stroke-linejoin="round"/>
    <path d="M13.3666 3.01639L6.7999 9.58306C6.5499 9.83306 6.2999 10.3247 6.2499 10.6831L5.89157 13.1914C5.75823 14.0997 6.3999 14.7331 7.30823 14.6081L9.81657 14.2497C10.1666 14.1997 10.6582 13.9497 10.9166 13.6997L17.4832 7.13306C18.6166 5.99972 19.1499 4.68306 17.4832 3.01639C15.8166 1.34972 14.4999 1.88306 13.3666 3.01639Z" stroke="#F8FAFF" stroke-width="1.5" stroke-miterlimit="10" stroke-linecap="round" stroke-linejoin="round"/>
    <path d="M12.4248 3.95898C12.9831 5.95065 14.5415 7.50898 16.5415 8.07565" stroke="#F8FAFF" stroke-width="1.5" stroke-miterlimit="10" stroke-linecap="round" stroke-linejoin="round"/>
</svg>
