<svg width="46" height="46" viewBox="0 0 46 46" fill="none" xmlns="http://www.w3.org/2000/svg">
    <g filter="url(#filter0_bd_2485_4281)">
        <path d="M26 5C23.0333 5 20.1332 5.87973 17.6665 7.52796C15.1997 9.17618 13.2771 11.5189 12.1418 14.2597C11.0065 17.0006 10.7094 20.0166 11.2882 22.9264C11.867 25.8361 13.2956 28.5088 15.3934 30.6066C17.4912 32.7044 20.1639 34.133 23.0737 34.7118C25.9834 35.2906 28.9994 34.9935 31.7403 33.8582C34.4811 32.7229 36.8238 30.8003 38.472 28.3335C40.1203 25.8668 41 22.9667 41 20C40.9953 16.0232 39.4135 12.2106 36.6014 9.39858C33.7894 6.58655 29.9768 5.00469 26 5ZM32.7486 24.8218C32.8789 24.9476 32.9828 25.0981 33.0542 25.2644C33.1257 25.4308 33.1633 25.6098 33.1649 25.7908C33.1665 25.9719 33.132 26.1514 33.0634 26.319C32.9948 26.4866 32.8936 26.6389 32.7655 26.7669C32.6375 26.8949 32.4853 26.9962 32.3177 27.0648C32.1501 27.1333 31.9705 27.1678 31.7895 27.1662C31.6084 27.1647 31.4295 27.1271 31.2631 27.0556C31.0967 26.9841 30.9462 26.8802 30.8205 26.75L26 21.9282L21.1782 26.75C20.921 26.9984 20.5765 27.1358 20.219 27.1327C19.8615 27.1296 19.5194 26.9862 19.2666 26.7334C19.0138 26.4806 18.8704 26.1385 18.8673 25.781C18.8642 25.4235 19.0016 25.079 19.25 24.8218L24.0718 20L19.25 15.1782C19.1198 15.0524 19.0159 14.9019 18.9444 14.7355C18.8729 14.5692 18.8353 14.3902 18.8338 14.2092C18.8322 14.0281 18.8667 13.8486 18.9352 13.681C19.0038 13.5134 19.1051 13.3611 19.2331 13.2331C19.3611 13.1051 19.5134 13.0038 19.681 12.9352C19.8486 12.8667 20.0281 12.8322 20.2092 12.8337C20.3903 12.8353 20.5692 12.8729 20.7356 12.9444C20.9019 13.0159 21.0524 13.1198 21.1782 13.25L26 18.0718L30.8205 13.25C30.9462 13.1198 31.0967 13.0159 31.2631 12.9444C31.4295 12.8729 31.6084 12.8353 31.7895 12.8337C31.9705 12.8322 32.1501 12.8667 32.3177 12.9352C32.4853 13.0038 32.6375 13.1051 32.7655 13.2331C32.8936 13.3611 32.9948 13.5134 33.0634 13.681C33.132 13.8486 33.1665 14.0281 33.1649 14.2092C33.1633 14.3902 33.1257 14.5692 33.0542 14.7355C32.9828 14.9019 32.8789 15.0524 32.7486 15.1782L27.9282 20L32.7486 24.8218Z" fill="white" fill-opacity="0.45"/>
    </g>
    <defs>
        <filter id="filter0_bd_2485_4281" x="-49" y="-55" width="150" height="150" filterUnits="userSpaceOnUse" color-interpolation-filters="sRGB">
            <feFlood flood-opacity="0" result="BackgroundImageFix"/>
            <feGaussianBlur in="BackgroundImageFix" stdDeviation="30"/>
            <feComposite in2="SourceAlpha" operator="in" result="effect1_backgroundBlur_2485_4281"/>
            <feColorMatrix in="SourceAlpha" type="matrix" values="0 0 0 0 0 0 0 0 0 0 0 0 0 0 0 0 0 0 127 0" result="hardAlpha"/>
            <feOffset dx="-3" dy="3"/>
            <feGaussianBlur stdDeviation="4"/>
            <feComposite in2="hardAlpha" operator="out"/>
            <feColorMatrix type="matrix" values="0 0 0 0 0 0 0 0 0 0 0 0 0 0 0 0 0 0 0.15 0"/>
            <feBlend mode="normal" in2="effect1_backgroundBlur_2485_4281" result="effect2_dropShadow_2485_4281"/>
            <feBlend mode="normal" in="SourceGraphic" in2="effect2_dropShadow_2485_4281" result="shape"/>
        </filter>
    </defs>
</svg>
