<svg width="16" height="19" viewBox="0 0 16 19" fill="none" xmlns="http://www.w3.org/2000/svg">
    <path d="M9.83317 0H2.49984C2.01361 0 1.54729 0.193151 1.20348 0.536974C0.859655 0.880788 0.666504 1.34711 0.666504 1.83333V16.5C0.666504 16.9862 0.859655 17.4525 1.20348 17.7964C1.54729 18.1402 2.01361 18.3333 2.49984 18.3333H13.4998C13.986 18.3333 14.4523 18.1402 14.7962 17.7964C15.14 17.4525 15.3332 16.9862 15.3332 16.5V5.5L9.83317 0ZM5.70634 13.0075C5.42309 13.2733 5.00509 13.3925 4.51834 13.3925C4.42396 13.3935 4.32962 13.388 4.236 13.376V14.6832H3.4165V11.0752C3.78633 11.02 4.16003 10.9949 4.53392 11C5.0445 11 5.4075 11.0972 5.65225 11.2924C5.88509 11.4776 6.04275 11.781 6.04275 12.1385C6.04184 12.4978 5.92267 12.8013 5.70634 13.0075ZM9.19609 14.2496C8.81109 14.5695 8.22534 14.7217 7.50942 14.7217C7.08042 14.7217 6.777 14.6942 6.57075 14.6667V11.0761C6.94072 11.0221 7.31426 10.9966 7.68817 11C8.38209 11 8.83309 11.1247 9.18509 11.3905C9.5655 11.6728 9.80384 12.1229 9.80384 12.7692C9.80384 13.4686 9.54809 13.9517 9.19609 14.2496ZM12.5832 11.7058H11.1788V12.5409H12.4915V13.2138H11.1788V14.6841H10.3483V11.0275H12.5832V11.7058ZM9.83317 6.41667H8.9165V1.83333L13.4998 6.41667H9.83317Z" fill="#031B3C"/>
</svg>
