<svg width="24" height="24" viewBox="0 0 24 24" fill="none" xmlns="http://www.w3.org/2000/svg">
    <g clip-path="url(#clip0_2484_2204)">
        <path d="M12 0C5.3828 0 0 5.3828 0 12C0 18.6172 5.3828 24 12 24C18.6172 24 24 18.6163 24 12C24 5.38373 18.6172 0 12 0ZM12 22.141C6.40898 22.141 1.85902 17.592 1.85902 12C1.85902 6.40805 6.40898 1.85902 12 1.85902C17.591 1.85902 22.141 6.40805 22.141 12C22.141 17.592 17.592 22.141 12 22.141Z" fill="#2ED59F"/>
        <path d="M16.6475 10.9874H12.9295V7.26937C12.9295 6.75628 12.514 6.33984 11.9999 6.33984C11.4859 6.33984 11.0704 6.75628 11.0704 7.26937V10.9874H7.35238C6.83835 10.9874 6.42285 11.4038 6.42285 11.9169C6.42285 12.43 6.83835 12.8465 7.35238 12.8465H11.0704V16.5645C11.0704 17.0776 11.4859 17.494 11.9999 17.494C12.514 17.494 12.9295 17.0776 12.9295 16.5645V12.8465H16.6475C17.1615 12.8465 17.577 12.43 17.577 11.9169C17.577 11.4038 17.1615 10.9874 16.6475 10.9874Z" fill="#2ED59F"/>
    </g>
    <defs>
        <clipPath id="clip0_2484_2204">
            <rect width="24" height="24" fill="white"/>
        </clipPath>
    </defs>
</svg>
