<svg width="20" height="21" viewBox="0 0 20 21" fill="none" xmlns="http://www.w3.org/2000/svg">
    <path d="M13.1751 17.3161C12.9584 17.3161 12.7334 17.3078 12.4917 17.2828C12.0584 17.2494 11.5667 17.1661 11.0584 17.0411L9.65839 16.7078C5.81673 15.7994 4.55839 13.7661 5.45839 9.93278L6.27506 6.44111C6.45839 5.64944 6.67506 5.00778 6.94173 4.47444C8.37506 1.51611 11.1167 1.78278 13.0667 2.24111L14.4584 2.56611C16.4084 3.02444 17.6417 3.74944 18.3334 4.85778C19.0167 5.96611 19.1251 7.39111 18.6667 9.34111L17.8501 12.8244C17.1334 15.8744 15.6417 17.3161 13.1751 17.3161ZM10.9334 3.20778C9.54173 3.20778 8.65839 3.78278 8.06673 5.01611C7.85006 5.46611 7.65839 6.02444 7.49173 6.72444L6.67506 10.2161C5.93339 13.3661 6.79173 14.7411 9.94173 15.4911L11.3417 15.8244C11.7917 15.9328 12.2167 15.9994 12.6001 16.0328C14.8584 16.2578 15.9917 15.2661 16.6251 12.5411L17.4417 9.05778C17.8167 7.44944 17.7667 6.32444 17.2667 5.51611C16.7667 4.70778 15.7834 4.15778 14.1667 3.78278L12.7751 3.45778C12.0834 3.29111 11.4667 3.20778 10.9334 3.20778Z" fill="#F8FAFF"/>
    <path d="M6.94155 19.0424C4.79988 19.0424 3.43321 17.759 2.55821 15.0507L1.49155 11.759C0.308214 8.09238 1.36655 6.02571 5.01655 4.84238L6.33321 4.41738C6.76655 4.28405 7.09155 4.19238 7.38321 4.14238C7.61655 4.09238 7.85821 4.18405 7.99988 4.37571C8.14155 4.56738 8.16655 4.81738 8.06655 5.03405C7.84988 5.47571 7.65821 6.03405 7.49988 6.73405L6.68321 10.2257C5.94155 13.3757 6.79988 14.7507 9.94988 15.5007L11.3499 15.834C11.7999 15.9424 12.2249 16.009 12.6082 16.0424C12.8749 16.0674 13.0915 16.2507 13.1665 16.509C13.2332 16.7674 13.1332 17.034 12.9165 17.184C12.3665 17.559 11.6749 17.8757 10.7999 18.159L9.48321 18.5924C8.52488 18.8924 7.69155 19.0424 6.94155 19.0424ZM6.48321 5.68405L5.40821 6.03405C2.43321 6.99238 1.72488 8.39238 2.68321 11.3757L3.74988 14.6674C4.71655 17.6424 6.11655 18.359 9.09155 17.4007L10.4082 16.9674C10.4582 16.9507 10.4999 16.934 10.5499 16.9174L9.66655 16.709C5.82488 15.8007 4.56655 13.7674 5.46655 9.93405L6.28321 6.44238C6.34155 6.17571 6.40821 5.91738 6.48321 5.68405Z" fill="#F8FAFF"/>
</svg>
