<svg width="20" height="20" viewBox="0 0 20 20" fill="none" xmlns="http://www.w3.org/2000/svg">
    <g clip-path="url(#clip0_2485_3300)">
        <path d="M17.1429 0C16.7484 0 16.4286 0.319796 16.4286 0.714299V3.32356C12.7512 -0.236719 6.88391 -0.141713 3.32363 3.53567C1.64576 5.26875 0.709727 7.58776 0.714373 9.99998C0.714373 10.3945 1.03417 10.7143 1.42867 10.7143C1.82317 10.7143 2.14293 10.3945 2.14293 9.99998C2.14381 5.66061 5.66223 2.14353 10.0016 2.1444C12.2055 2.14482 14.3078 3.07081 15.7958 4.69641L12.6315 5.75139C12.2568 5.87607 12.054 6.28091 12.1787 6.65566C12.3034 7.03041 12.7082 7.23318 13.083 7.1085L17.3687 5.67995C17.6612 5.58252 17.8582 5.3083 17.8573 4.99997V0.714257C17.8572 0.319796 17.5374 0 17.1429 0Z" fill="#F8FAFF"/>
        <path d="M18.5712 9.28516C18.1767 9.28516 17.8569 9.60495 17.8569 9.99946C17.856 14.3388 14.3376 17.8559 9.9982 17.855C7.79436 17.8546 5.69206 16.9286 4.20403 15.303L7.3683 14.248C7.74305 14.1234 7.94583 13.7185 7.82115 13.3438C7.69647 12.969 7.29163 12.7662 6.91688 12.8909L2.63117 14.3195C2.33862 14.4169 2.14162 14.6911 2.14258 14.9995V19.2852C2.14258 19.6797 2.46238 19.9995 2.85688 19.9995C3.25138 19.9995 3.57118 19.6797 3.57118 19.2852V16.6759C7.2486 20.2362 13.1159 20.1412 16.6762 16.4638C18.354 14.7307 19.2901 12.4117 19.2854 9.99946C19.2855 9.60495 18.9657 9.28516 18.5712 9.28516Z" fill="#F8FAFF"/>
    </g>
    <defs>
        <clipPath id="clip0_2485_3300">
            <rect width="20" height="20" fill="white"/>
        </clipPath>
    </defs>
</svg>
