<svg width="20" height="21" viewBox="0 0 20 21" fill="none" xmlns="http://www.w3.org/2000/svg">
    <path d="M12.7009 7.16729L11.0491 5.51546V12.7923C11.0491 13.3677 10.5828 13.834 10.0074 13.834C9.43218 13.834 8.96576 13.3677 8.96576 12.7923V5.51546L7.31388 7.16734C6.90709 7.57414 6.24754 7.57414 5.84074 7.16734C5.43395 6.76055 5.43395 6.101 5.84074 5.69421L9.27085 2.26408C9.46618 2.06873 9.73118 1.95898 10.0074 1.95898C10.2837 1.95898 10.5487 2.06873 10.744 2.26408L14.1741 5.69416C14.5808 6.10095 14.5808 6.7605 14.1741 7.16729C13.7673 7.57409 13.1078 7.57409 12.7009 7.16729Z" fill="white"/>
    <path d="M16.6738 12.168C16.0985 12.168 15.6322 12.6343 15.6322 13.2096V16.1263H4.38216V13.2096C4.38216 12.6343 3.91579 12.168 3.34049 12.168C2.76519 12.168 2.29883 12.6343 2.29883 13.2096V16.3346C2.29883 17.3701 3.13829 18.2096 4.17383 18.2096H15.8405C16.876 18.2096 17.7155 17.3701 17.7155 16.3346V13.2096C17.7155 12.6343 17.2491 12.168 16.6738 12.168Z" fill="white"/>
</svg>
