<svg width="15" height="15" viewBox="0 0 15 15" fill="none" xmlns="http://www.w3.org/2000/svg">
    <path d="M9.44492 7.38791C10.0753 6.96997 10.5543 6.36015 10.8109 5.64874C11.0676 4.93733 11.0884 4.16216 10.8702 3.43803C10.6519 2.7139 10.2063 2.07931 9.59918 1.62824C8.99211 1.17717 8.25592 0.933594 7.49961 0.933594C6.7433 0.933594 6.00711 1.17717 5.40004 1.62824C4.79297 2.07931 4.34731 2.7139 4.12906 3.43803C3.91081 4.16216 3.93157 4.93733 4.18827 5.64874C4.44497 6.36015 4.92395 6.96997 5.5543 7.38791C4.48665 7.78512 3.56578 8.49892 2.91489 9.43379C2.264 10.3687 1.91413 11.48 1.91211 12.6192V13.5942C1.91211 13.7185 1.9615 13.8377 2.0494 13.9256C2.13731 14.0135 2.25654 14.0629 2.38086 14.0629H12.6184C12.7427 14.0629 12.8619 14.0135 12.9498 13.9256C13.0377 13.8377 13.0871 13.7185 13.0871 13.5942V12.6192C13.0851 11.48 12.7352 10.3687 12.0843 9.43379C11.4334 8.49892 10.5126 7.78512 9.44492 7.38791ZM7.82305 6.56291C7.73574 6.64951 7.61789 6.69833 7.49492 6.69884C7.43323 6.6992 7.37208 6.68738 7.31497 6.66405C7.25785 6.64072 7.20591 6.60635 7.16211 6.56291C7.11817 6.51933 7.0833 6.46749 7.0595 6.41036C7.03571 6.35324 7.02345 6.29197 7.02345 6.23009C7.02345 6.16821 7.03571 6.10695 7.0595 6.04982C7.0833 5.9927 7.11817 5.94086 7.16211 5.89728C7.24994 5.80998 7.36874 5.76097 7.49258 5.76097C7.61642 5.76097 7.73522 5.80998 7.82305 5.89728C7.86734 5.94069 7.90257 5.99247 7.92671 6.04959C7.95085 6.10672 7.96341 6.16808 7.96367 6.23009C7.96341 6.29211 7.95085 6.35346 7.92671 6.41059C7.90257 6.46772 7.86734 6.51949 7.82305 6.56291ZM7.96367 4.93166V5.17072C7.96367 5.29504 7.91429 5.41427 7.82638 5.50217C7.73847 5.59008 7.61924 5.63947 7.49492 5.63947C7.3706 5.63947 7.25137 5.59008 7.16347 5.50217C7.07556 5.41427 7.02617 5.29504 7.02617 5.17072V4.55666C7.02617 4.43234 7.07556 4.31311 7.16347 4.2252C7.25137 4.13729 7.3706 4.08791 7.49492 4.08791C7.59313 4.08791 7.68733 4.04889 7.75677 3.97944C7.82622 3.91 7.86523 3.81581 7.86523 3.71759C7.86586 3.66857 7.85673 3.61991 7.8384 3.57444C7.82007 3.52897 7.79289 3.48759 7.75844 3.45271C7.72399 3.41782 7.68296 3.39013 7.63773 3.37122C7.59249 3.35232 7.54395 3.34259 7.49492 3.34259C7.39547 3.34259 7.30008 3.3821 7.22976 3.45243C7.15943 3.52276 7.11992 3.61814 7.11992 3.71759C7.11992 3.84191 7.07054 3.96114 6.98263 4.04905C6.89472 4.13696 6.77549 4.18634 6.65117 4.18634C6.52685 4.18634 6.40762 4.13696 6.31972 4.04905C6.23181 3.96114 6.18242 3.84191 6.18242 3.71759C6.18229 3.47857 6.24744 3.24404 6.37084 3.03933C6.49423 2.83462 6.67119 2.66749 6.88261 2.55598C7.09403 2.44447 7.33189 2.39281 7.57052 2.40657C7.80915 2.42034 8.03949 2.49901 8.23668 2.6341C8.43387 2.76918 8.59044 2.95555 8.68947 3.1731C8.7885 3.39064 8.82625 3.6311 8.79863 3.86853C8.77102 4.10596 8.67909 4.33133 8.53277 4.52034C8.38645 4.70935 8.19129 4.85481 7.96836 4.94103L7.96367 4.93166Z" fill="#008BF8"/>
</svg>
