<svg width="20" height="20" viewBox="0 0 20 20" fill="none" xmlns="http://www.w3.org/2000/svg">
    <path d="M6.25 6.63625L9.2275 8.125L6.25 9.61375V6.63625ZM8.75 14.375C8.75059 14.5839 8.76291 14.7925 8.78687 15H3.125C2.62772 15 2.15081 14.8025 1.79917 14.4508C1.44754 14.0992 1.25 13.6223 1.25 13.125V3.125C1.25 2.62772 1.44754 2.15081 1.79917 1.79917C2.15081 1.44754 2.62772 1.25 3.125 1.25H13.125C13.6223 1.25 14.0992 1.44754 14.4508 1.79917C14.8025 2.15081 15 2.62772 15 3.125V8.78687C14.2131 8.69611 13.416 8.77309 12.661 9.01273C11.906 9.25236 11.2104 9.64923 10.6199 10.1772C10.0294 10.7051 9.55748 11.3522 9.23518 12.0757C8.91288 12.7993 8.74752 13.5829 8.75 14.375ZM5.90437 11.1875L10.9044 8.6875C11.0084 8.63566 11.0959 8.55586 11.157 8.45705C11.2182 8.35824 11.2506 8.24433 11.2506 8.12813C11.2506 8.01192 11.2182 7.89801 11.157 7.7992C11.0959 7.70039 11.0084 7.62059 10.9044 7.56875L5.90437 5.06875C5.8093 5.02124 5.70368 4.99876 5.5975 5.00344C5.49132 5.00811 5.38809 5.03979 5.29756 5.09547C5.20703 5.15115 5.13219 5.229 5.08012 5.32166C5.02806 5.41431 5.00048 5.51872 5 5.625V10.625C4.99995 10.7315 5.02714 10.8363 5.07899 10.9294C5.13083 11.0225 5.20562 11.1008 5.29623 11.1568C5.38685 11.2129 5.49028 11.2448 5.59672 11.2497C5.70316 11.2545 5.80906 11.232 5.90437 11.1844V11.1875ZM18.75 14.375C18.75 15.2403 18.4934 16.0862 18.0127 16.8056C17.5319 17.5251 16.8487 18.0858 16.0492 18.417C15.2498 18.7481 14.3701 18.8347 13.5215 18.6659C12.6728 18.4971 11.8933 18.0804 11.2814 17.4686C10.6696 16.8567 10.2529 16.0772 10.0841 15.2285C9.91525 14.3799 10.0019 13.5002 10.333 12.7008C10.6642 11.9013 11.2249 11.2181 11.9444 10.7373C12.6638 10.2566 13.5097 10 14.375 10C15.5349 10.0013 16.6469 10.4627 17.4671 11.2829C18.2873 12.1031 18.7487 13.2151 18.75 14.375ZM16.0669 14.2456C15.9497 14.1285 15.7907 14.0626 15.625 14.0626C15.4593 14.0626 15.3003 14.1285 15.1831 14.2456L15 14.4288V12.8125C15 12.6467 14.9342 12.4878 14.8169 12.3706C14.6997 12.2533 14.5408 12.1875 14.375 12.1875C14.2092 12.1875 14.0503 12.2533 13.9331 12.3706C13.8158 12.4878 13.75 12.6467 13.75 12.8125V14.4288L13.5669 14.2456C13.449 14.1318 13.2911 14.0688 13.1272 14.0702C12.9634 14.0716 12.8066 14.1374 12.6907 14.2532C12.5749 14.3691 12.5091 14.5259 12.5077 14.6897C12.5063 14.8536 12.5693 15.0115 12.6831 15.1294L13.9331 16.3794C14.0503 16.4965 14.2093 16.5624 14.375 16.5624C14.5407 16.5624 14.6997 16.4965 14.8169 16.3794L16.0669 15.1294C16.184 15.0122 16.2499 14.8532 16.2499 14.6875C16.2499 14.5218 16.184 14.3628 16.0669 14.2456Z" fill="#031B3C"/>
</svg>
