<svg width="15" height="15" viewBox="0 0 15 15" fill="none" xmlns="http://www.w3.org/2000/svg">
    <g clip-path="url(#clip0_2442_2864)">
        <path d="M15 0.859375H8.67188C8.21045 0.859375 7.79402 1.05464 7.5 1.3665C7.20598 1.05464 6.78955 0.859375 6.32812 0.859375H0V11.4258H3.36835C4.06128 13.0216 5.6523 14.1406 7.5 14.1406C9.3477 14.1406 10.9387 13.0216 11.6317 11.4258H15V0.859375ZM14.1211 10.5469H11.9099C11.9702 10.2534 12.002 9.9497 12.002 9.63868C12.002 9.28603 11.9611 8.94279 11.884 8.61329H12.9053V7.73438H11.5787C11.4097 7.37383 11.1943 7.03926 10.9402 6.73829H12.9053V5.85938H9.94359C9.35537 5.47773 8.67293 5.22962 7.93945 5.15822V2.4707C7.93945 2.06685 8.26802 1.73828 8.67188 1.73828H14.1211V10.5469ZM7.5 13.2617C5.50225 13.2617 3.87694 11.6364 3.87694 9.63868C3.87694 7.64093 5.50225 6.01562 7.5 6.01562C9.49775 6.01562 11.1231 7.64093 11.1231 9.63868C11.1231 11.6364 9.49775 13.2617 7.5 13.2617ZM0.878906 1.73828H6.32812C6.73198 1.73828 7.06055 2.06685 7.06055 2.4707V5.15819C6.32707 5.22959 5.64463 5.4777 5.05638 5.85935H2.09473V6.73826H4.05981C3.80569 7.03923 3.59027 7.3738 3.42126 7.73435H2.09473V8.61326H3.11596C3.03891 8.94276 2.99804 9.28601 2.99804 9.63865C2.99804 9.94967 3.02977 10.2534 3.09012 10.5469H0.878906V1.73828Z" fill="#008BF8"/>
        <path d="M2.09473 3.98438H5.84473V4.86328H2.09473V3.98438Z" fill="#008BF8"/>
        <path d="M9.15527 3.98438H12.9053V4.86328H9.15527V3.98438Z" fill="#008BF8"/>
        <path d="M9.59473 10.0186V9.25743L6.55078 7.5L5.8916 7.88057V11.3954L6.55078 11.776L9.59473 10.0186ZM6.77051 8.64173L8.49609 9.638L6.77051 10.6343V8.64173Z" fill="#008BF8"/>
    </g>
    <defs>
        <clipPath id="clip0_2442_2864">
            <rect width="15" height="15" fill="white"/>
        </clipPath>
    </defs>
</svg>
