<svg width="20" height="21" viewBox="0 0 20 21" fill="none" xmlns="http://www.w3.org/2000/svg">
    <path d="M9.99993 14.1092C8.00827 14.1092 6.3916 12.4926 6.3916 10.5009C6.3916 8.50924 8.00827 6.89258 9.99993 6.89258C11.9916 6.89258 13.6083 8.50924 13.6083 10.5009C13.6083 12.4926 11.9916 14.1092 9.99993 14.1092ZM9.99993 8.14258C8.69993 8.14258 7.6416 9.20091 7.6416 10.5009C7.6416 11.8009 8.69993 12.8592 9.99993 12.8592C11.2999 12.8592 12.3583 11.8009 12.3583 10.5009C12.3583 9.20091 11.2999 8.14258 9.99993 8.14258Z" fill="#F8FAFF"/>
    <path d="M9.9999 18.0158C6.86657 18.0158 3.90824 16.1824 1.8749 12.9991C0.991569 11.6241 0.991569 9.38242 1.8749 7.99909C3.91657 4.81576 6.8749 2.98242 9.9999 2.98242C13.1249 2.98242 16.0832 4.81576 18.1166 7.99909C18.9999 9.37409 18.9999 11.6158 18.1166 12.9991C16.0832 16.1824 13.1249 18.0158 9.9999 18.0158ZM9.9999 4.23242C7.30824 4.23242 4.73324 5.84909 2.93324 8.67409C2.30824 9.64909 2.30824 11.3491 2.93324 12.3241C4.73324 15.1491 7.30824 16.7658 9.9999 16.7658C12.6916 16.7658 15.2666 15.1491 17.0666 12.3241C17.6916 11.3491 17.6916 9.64909 17.0666 8.67409C15.2666 5.84909 12.6916 4.23242 9.9999 4.23242Z" fill="#F8FAFF"/>
</svg>
