<svg width="20" height="21" viewBox="0 0 20 21" fill="none" xmlns="http://www.w3.org/2000/svg">
    <g clip-path="url(#clip0_211_572)">
        <path d="M16.25 12.2061V14.9248C16.25 15.9123 15.6687 16.7936 14.7687 17.2061C13.675 17.7061 12.0188 18.2498 10 18.2498C7.98125 18.2498 6.325 17.7061 5.225 17.2061C4.33125 16.7936 3.75 15.9123 3.75 14.9248V12.2061L8.19375 14.2373C8.7625 14.4998 9.375 14.6311 10 14.6311C10.625 14.6311 11.2375 14.4998 11.8062 14.2373L16.25 12.2061Z" fill="#2A9134"/>
        <path d="M18.75 11.0625V15.125C18.75 15.4688 18.4688 15.75 18.125 15.75C17.7812 15.75 17.5 15.4688 17.5 15.125V11.6375L18.75 11.0625Z" fill="#2A9134"/>
        <path d="M8.71125 13.102C9.12062 13.2889 9.56 13.3827 10 13.3827C10.44 13.3827 10.8788 13.2895 11.2888 13.102L19.2706 9.45328C19.7206 9.24766 20 8.81203 20 8.31641C20 7.82078 19.7206 7.38453 19.2706 7.17891L11.2888 3.53078C10.4694 3.15641 9.53125 3.15641 8.71188 3.53078L0.729375 7.17828C0.279375 7.38453 0 7.82016 0 8.31578C0 8.81141 0.279375 9.24703 0.729375 9.45328L8.71125 13.102Z" fill="#2A9134"/>
    </g>
    <defs>
        <clipPath id="clip0_211_572">
            <rect width="20" height="20" fill="white" transform="translate(0 0.75)"/>
        </clipPath>
    </defs>
</svg>
