<svg width="20" height="21" viewBox="0 0 20 21" fill="none" xmlns="http://www.w3.org/2000/svg">
    <g clip-path="url(#clip0_197_497)">
        <path d="M12.5 6.16699C12.04 6.16699 11.6667 5.79366 11.6667 5.33366V4.08366H8.33332V5.33366C8.33332 5.79366 7.95999 6.16699 7.49999 6.16699C7.03999 6.16699 6.66666 5.79366 6.66666 5.33366V4.08366C6.66666 3.16449 7.41416 2.41699 8.33332 2.41699H11.6667C12.5858 2.41699 13.3333 3.16449 13.3333 4.08366V5.33366C13.3333 5.79366 12.96 6.16699 12.5 6.16699Z" fill="#2A9134"/>
        <path d="M10.5917 13.5669C10.4417 13.6253 10.225 13.6669 10 13.6669C9.775 13.6669 9.55833 13.6253 9.35833 13.5503L0 10.4336V16.7919C0 18.0586 1.025 19.0836 2.29167 19.0836H17.7083C18.975 19.0836 20 18.0586 20 16.7919V10.4336L10.5917 13.5669Z" fill="#2A9134"/>
        <path d="M20 7.20866V9.11699L10.2 12.3837C10.1333 12.4087 10.0667 12.417 10 12.417C9.93333 12.417 9.86667 12.4087 9.8 12.3837L0 9.11699V7.20866C0 5.94199 1.025 4.91699 2.29167 4.91699H17.7083C18.975 4.91699 20 5.94199 20 7.20866Z" fill="#2A9134"/>
    </g>
    <defs>
        <clipPath id="clip0_197_497">
            <rect width="20" height="20" fill="white" transform="translate(0 0.75)"/>
        </clipPath>
    </defs>
</svg>
