<svg width="20" height="21" viewBox="0 0 20 21" fill="none" xmlns="http://www.w3.org/2000/svg">
    <g clip-path="url(#clip0_211_557)">
        <path d="M18.5192 9.37695C18.5107 9.38364 18.4997 9.38961 18.491 9.3963C18.4071 9.45815 18.3185 9.51837 18.223 9.57733C18.2078 9.58655 18.1912 9.59541 18.176 9.60482C18.0895 9.65582 17.9986 9.70591 17.9036 9.75474L17.8262 9.7947C17.717 9.84878 17.604 9.9014 17.4841 9.95258L17.4134 9.98134C17.3081 10.0251 17.1996 10.0674 17.0878 10.1085L16.9963 10.1421C16.8654 10.1886 16.7305 10.2334 16.5914 10.277L16.4978 10.305C16.3766 10.3421 16.2532 10.3767 16.1274 10.411C16.0941 10.4199 16.0616 10.4291 16.0281 10.4378C15.88 10.477 15.7274 10.5139 15.57 10.5488C15.5329 10.5573 15.4959 10.5651 15.4588 10.5732C15.3226 10.6036 15.1841 10.6327 15.0434 10.6606L14.9448 10.6803C14.7808 10.712 14.6141 10.7416 14.4444 10.7696C14.4034 10.7767 14.3614 10.7828 14.32 10.7895C14.1719 10.8136 14.0196 10.8366 13.8666 10.8581L13.7751 10.8711C13.5997 10.8957 13.4223 10.9178 13.2433 10.9373L13.1085 10.9521C12.9445 10.97 12.7796 10.9865 12.6134 11.0018L12.5459 11.0082C12.3607 11.0245 12.1756 11.038 11.9904 11.0507L11.8526 11.061C11.6762 11.0722 11.4997 11.0818 11.3229 11.0899L11.2789 11.0921C11.0899 11.1002 10.901 11.1066 10.7118 11.1107L10.5733 11.1136C10.3827 11.1174 10.1919 11.1199 10.0014 11.1199C9.81119 11.1199 9.6204 11.1174 9.42961 11.1136L9.29108 11.1107C9.10174 11.1062 8.91275 11.1 8.72413 11.0921L8.68001 11.0899C8.50296 11.0818 8.32646 11.0722 8.15031 11.061L8.01179 11.0518C7.8266 11.0393 7.64141 11.0255 7.45623 11.0093L7.38896 11.0029C7.22276 10.9879 7.05765 10.9713 6.89362 10.9532L6.75889 10.9384C6.58004 10.9178 6.40281 10.8957 6.22703 10.8722L6.13407 10.8606C5.98108 10.8393 5.83043 10.8163 5.68069 10.7922C5.63928 10.7856 5.59732 10.7792 5.55627 10.7722C5.38682 10.744 5.22008 10.7143 5.05588 10.6828L4.95731 10.6633C4.81662 10.6355 4.67809 10.6062 4.54191 10.5758C4.50484 10.5676 4.46777 10.5599 4.43069 10.5514C4.27444 10.5159 4.12181 10.4788 3.97261 10.4403C3.93934 10.4318 3.90661 10.4226 3.87333 10.4136C3.74674 10.3792 3.6234 10.3439 3.50296 10.3078L3.40928 10.2796C3.27003 10.2361 3.13512 10.1911 3.00437 10.1448L2.91304 10.111C2.8011 10.0701 2.69259 10.0276 2.58734 9.98405L2.51663 9.95511C2.39746 9.90394 2.2837 9.85149 2.17447 9.79742L2.09707 9.75727C2.00213 9.70844 1.91189 9.65853 1.82472 9.60735C1.80971 9.59813 1.79289 9.58927 1.7777 9.57986C1.68221 9.52109 1.59251 9.46068 1.50969 9.39884C1.50119 9.39214 1.48998 9.38618 1.48148 9.37948V13.3422C1.48148 14.2699 4.72222 15.5644 9.99999 15.5644C15.2778 15.5644 18.5185 14.2699 18.5185 13.3422L18.5192 9.37695Z" fill="#2A9134"/>
        <path d="M18.5192 14.5625C18.5107 14.5692 18.4997 14.5752 18.491 14.5819C18.4071 14.6437 18.3185 14.7039 18.223 14.7629C18.2078 14.7721 18.1912 14.781 18.176 14.7904C18.0895 14.8414 17.9986 14.8915 17.9036 14.9403L17.8262 14.9803C17.717 15.0343 17.604 15.087 17.4841 15.1381L17.4134 15.1669C17.3081 15.2106 17.1996 15.253 17.0878 15.294L16.9963 15.3277C16.8654 15.3741 16.7305 15.419 16.5914 15.4626L16.4978 15.4906C16.3766 15.5277 16.2532 15.5622 16.1274 15.5966C16.0941 15.6054 16.0616 15.6147 16.0281 15.6233C15.88 15.6626 15.7274 15.6995 15.57 15.7344C15.5329 15.7429 15.4959 15.7507 15.4588 15.7588C15.3226 15.7892 15.1841 15.8183 15.0434 15.8461L14.9448 15.8658C14.7808 15.8971 14.6141 15.927 14.4444 15.9552C14.4034 15.9622 14.3614 15.9684 14.32 15.9751C14.1719 15.9991 14.0196 16.0221 13.8666 16.0436L13.7751 16.0566C13.5997 16.0812 13.4223 16.1033 13.2433 16.1228L13.1085 16.1377C12.9445 16.1556 12.7796 16.172 12.6134 16.1874L12.5459 16.1937C12.3607 16.21 12.1756 16.2236 11.9904 16.2362L11.8526 16.2465C11.6762 16.2577 11.4997 16.2673 11.3229 16.2755L11.2789 16.2776C11.0899 16.2858 10.901 16.2921 10.7118 16.2963L10.5733 16.2992C10.3827 16.303 10.1919 16.3055 10.0014 16.3055C9.81119 16.3055 9.6204 16.303 9.42961 16.2992L9.29108 16.2963C9.10174 16.2917 8.91275 16.2856 8.72413 16.2776L8.68001 16.2755C8.50296 16.2673 8.32646 16.2577 8.15031 16.2465L8.01179 16.2373C7.8266 16.2248 7.64141 16.2111 7.45623 16.1948L7.38896 16.1885C7.22276 16.1735 7.05765 16.1568 6.89362 16.1387L6.75889 16.1239C6.58004 16.1033 6.40281 16.0812 6.22703 16.0577L6.13407 16.0462C5.98108 16.0248 5.83043 16.0018 5.68069 15.9778C5.63928 15.9711 5.59732 15.9648 5.55627 15.9577C5.38682 15.9295 5.22008 15.8998 5.05588 15.8684L4.95731 15.8488C4.81662 15.8212 4.67809 15.7921 4.54191 15.7613C4.50484 15.7532 4.46777 15.7454 4.43069 15.7369C4.27444 15.7015 4.12181 15.6644 3.97261 15.6259C3.93934 15.6174 3.90661 15.6081 3.87333 15.5991C3.74674 15.5647 3.6234 15.5295 3.50296 15.4933L3.40928 15.4651C3.27003 15.4219 3.13512 15.377 3.00437 15.3304L2.91304 15.2965C2.8011 15.2557 2.69259 15.2132 2.58734 15.1696L2.51663 15.1407C2.39746 15.0895 2.2837 15.037 2.17447 14.983L2.09707 14.9428C2.00213 14.894 1.91189 14.8441 1.82472 14.7929C1.80971 14.7837 1.79289 14.7748 1.7777 14.7654C1.68221 14.7066 1.59251 14.6462 1.50969 14.5844C1.50119 14.5777 1.48998 14.5717 1.48148 14.565V18.5277C1.48148 19.4554 4.72222 20.7499 9.99999 20.7499C15.2778 20.7499 18.5185 19.4554 18.5185 18.5277L18.5192 14.5625Z" fill="#2A9134"/>
        <path d="M18.5192 4.19238C18.5107 4.19907 18.4997 4.20504 18.491 4.21173C18.4071 4.27358 18.3185 4.3338 18.223 4.39276C18.2078 4.40198 18.1912 4.41084 18.176 4.42025C18.0895 4.47125 17.9986 4.52134 17.9036 4.56836L17.8262 4.60833C17.717 4.6624 17.604 4.71502 17.4841 4.76602L17.4134 4.79496C17.3081 4.83872 17.1996 4.88104 17.0878 4.92209L16.9963 4.95573C16.8654 5.00221 16.7305 5.04706 16.5914 5.09064L16.4978 5.11867C16.3766 5.15574 16.2532 5.1901 16.1274 5.22465C16.0941 5.23351 16.0616 5.24273 16.0281 5.25123C15.88 5.29047 15.7274 5.32755 15.57 5.36245C15.5329 5.37095 15.4959 5.37873 15.4588 5.38686C15.3226 5.41725 15.1841 5.44636 15.0434 5.47421L14.9448 5.49392C14.7808 5.52557 14.6141 5.55523 14.4444 5.58308C14.4034 5.59013 14.3614 5.59646 14.32 5.60315C14.1719 5.62721 14.0196 5.65017 13.8666 5.67169L13.7751 5.68472C13.5997 5.70931 13.4223 5.73137 13.2433 5.7509L13.1085 5.76573C12.9445 5.78346 12.7796 5.80009 12.6134 5.81529L12.5459 5.82161C12.3607 5.83789 12.1756 5.85163 11.9904 5.86429L11.8526 5.87641C11.6762 5.88762 11.4997 5.89721 11.3229 5.90535L11.2789 5.90752C11.0899 5.91565 10.901 5.92198 10.7118 5.92614L10.5733 5.92904C10.3827 5.93283 10.1919 5.93537 10.0014 5.93537C9.81119 5.93537 9.6204 5.93283 9.42961 5.92904L9.29108 5.92614C9.10174 5.92162 8.91275 5.91547 8.72413 5.90752L8.68001 5.90535C8.50296 5.89721 8.32646 5.88762 8.15031 5.87641L8.01179 5.86719C7.8266 5.85471 7.64141 5.84097 7.45623 5.82469L7.38896 5.81836C7.22276 5.80335 7.05765 5.78671 6.89362 5.76863L6.75889 5.7538C6.58004 5.73318 6.40281 5.71112 6.22703 5.68761L6.13407 5.67603C5.98108 5.65469 5.83043 5.63173 5.68069 5.60768C5.63928 5.60098 5.59732 5.59465 5.55627 5.5876C5.38682 5.55939 5.22008 5.52973 5.05588 5.49826L4.95731 5.47873C4.81662 5.45088 4.67809 5.42159 4.54191 5.3912C4.50484 5.38307 4.46777 5.37529 4.43069 5.36679C4.27444 5.33134 4.12181 5.29427 3.97261 5.25575C3.93934 5.24725 3.90661 5.23803 3.87333 5.22899C3.74674 5.19463 3.6234 5.15936 3.50296 5.12319L3.40928 5.09498C3.27003 5.05158 3.13512 5.00655 3.00437 4.96025L2.91304 4.92643C2.8011 4.88556 2.69259 4.84306 2.58734 4.79948L2.51663 4.77054C2.39746 4.71936 2.2837 4.66692 2.17447 4.61285L2.09707 4.5727C2.00213 4.52387 1.91189 4.47396 1.82472 4.42459C1.80971 4.41536 1.79289 4.4065 1.7777 4.39728C1.68221 4.33832 1.59251 4.27792 1.50969 4.21607C1.50119 4.20938 1.48998 4.2036 1.48148 4.1969V8.15759C1.48148 9.08351 4.72222 10.3798 9.99999 10.3798C15.2778 10.3798 18.5185 9.08351 18.5185 8.15759L18.5192 4.19238Z" fill="#2A9134"/>
        <path d="M18.5192 2.97222C18.5192 1.74501 14.7054 0.75 10.0007 0.75C5.29605 0.75 1.48221 1.74501 1.48221 2.97222C1.48221 4.19944 5.29605 5.19444 10.0007 5.19444C14.7054 5.19444 18.5192 4.19944 18.5192 2.97222Z" fill="#2A9134"/>
    </g>
    <defs>
        <clipPath id="clip0_211_557">
            <rect width="20" height="20" fill="white" transform="translate(0 0.75)"/>
        </clipPath>
    </defs>
</svg>
