<svg width="20" height="21" viewBox="0 0 20 21" fill="none" xmlns="http://www.w3.org/2000/svg">
    <path d="M5.625 12H1.875C1.52982 12 1.25 12.2798 1.25 12.625V18.875C1.25 19.2202 1.52982 19.5 1.875 19.5H5.625C5.97018 19.5 6.25 19.2202 6.25 18.875V12.625C6.25 12.2798 5.97018 12 5.625 12Z" fill="#2A9134"/>
    <path d="M18.125 7H14.375C14.0298 7 13.75 7.27982 13.75 7.625V18.875C13.75 19.2202 14.0298 19.5 14.375 19.5H18.125C18.4702 19.5 18.75 19.2202 18.75 18.875V7.625C18.75 7.27982 18.4702 7 18.125 7Z" fill="#2A9134"/>
    <path d="M11.875 2H8.125C7.77982 2 7.5 2.27982 7.5 2.625V18.875C7.5 19.2202 7.77982 19.5 8.125 19.5H11.875C12.2202 19.5 12.5 19.2202 12.5 18.875V2.625C12.5 2.27982 12.2202 2 11.875 2Z" fill="#2A9134"/>
</svg>
