<svg width="20" height="21" viewBox="0 0 20 21" fill="none" xmlns="http://www.w3.org/2000/svg">
    <g clip-path="url(#clip0_214_580)">
        <path d="M11.6714 13.0036C11.1739 13.3353 10.5959 13.5106 10 13.5106C9.40414 13.5106 8.82617 13.3353 8.32859 13.0036L0.133164 7.53977C0.0876953 7.50945 0.0433984 7.47785 0 7.44535V16.3984C0 17.4248 0.833008 18.2395 1.84113 18.2395H18.1588C19.1853 18.2395 20 17.4065 20 16.3984V7.44531C19.9565 7.47789 19.9121 7.50957 19.8665 7.53992L11.6714 13.0036Z" fill="#2A9134"/>
        <path d="M0.783203 6.56512L8.97863 12.0289C9.28887 12.2358 9.64441 12.3392 9.99996 12.3392C10.3555 12.3392 10.7111 12.2357 11.0214 12.0289L19.2168 6.56512C19.7072 6.23836 20 5.69148 20 5.10125C20 4.08637 19.1743 3.26074 18.1595 3.26074H1.84051C0.825664 3.26078 0 4.08641 0 5.10223C0 5.69148 0.292812 6.23836 0.783203 6.56512Z" fill="#2A9134"/>
    </g>
    <defs>
        <clipPath id="clip0_214_580">
            <rect width="20" height="20" fill="white" transform="translate(0 0.75)"/>
        </clipPath>
    </defs>
</svg>
