<svg width="20" height="21" viewBox="0 0 20 21" fill="none" xmlns="http://www.w3.org/2000/svg">
    <path d="M18.2563 8.1503C17.8916 8.09732 17.5435 7.96276 17.238 7.75662C16.9326 7.55049 16.6775 7.2781 16.4919 6.95973C16.3063 6.64136 16.1949 6.28522 16.166 5.91783C16.1371 5.55044 16.1915 5.18127 16.325 4.8378C16.4099 4.61325 16.4224 4.36776 16.3608 4.13575C16.2991 3.90374 16.1664 3.69684 15.9813 3.54405C15.1638 2.85759 14.2333 2.31832 13.2313 1.9503C13.0031 1.86554 12.754 1.85495 12.5194 1.92004C12.2849 1.98512 12.0769 2.12257 11.925 2.3128C11.6964 2.60508 11.4043 2.84148 11.0708 3.00406C10.7372 3.16663 10.3711 3.25113 10 3.25113C9.62897 3.25113 9.26279 3.16663 8.92926 3.00406C8.59572 2.84148 8.30359 2.60508 8.07501 2.3128C7.92315 2.12257 7.71513 1.98512 7.48059 1.92004C7.24604 1.85495 6.99694 1.86554 6.76876 1.9503C5.84356 2.29007 4.97851 2.77534 4.20626 3.3878C4.0116 3.5419 3.87139 3.75428 3.80616 3.99383C3.74093 4.23338 3.75411 4.48753 3.84376 4.71905C3.98799 5.0716 4.04757 5.45305 4.01775 5.8328C3.98792 6.21254 3.86951 6.58001 3.67201 6.90573C3.47452 7.23144 3.20344 7.50634 2.88051 7.70836C2.55758 7.91039 2.1918 8.03392 1.81251 8.06905C1.56627 8.09538 1.33498 8.20007 1.15271 8.36772C0.970433 8.53537 0.846801 8.75711 0.800014 9.0003C0.683637 9.57636 0.625014 10.1626 0.625014 10.7503C0.624158 11.2423 0.663876 11.7336 0.743764 12.219C0.783523 12.47 0.904855 12.7009 1.089 12.876C1.27315 13.0511 1.50985 13.1607 1.76251 13.1878C2.15014 13.2242 2.5234 13.3529 2.85108 13.5631C3.17875 13.7734 3.4513 14.059 3.64591 14.3962C3.84052 14.7334 3.95152 15.1123 3.96963 15.5012C3.98775 15.8901 3.91244 16.2777 3.75001 16.6315C3.64372 16.8617 3.61735 17.1208 3.6751 17.3676C3.73285 17.6145 3.8714 17.8349 4.06876 17.994C4.88134 18.668 5.80287 19.1986 6.79376 19.5628C6.92048 19.6067 7.05343 19.6299 7.18751 19.6315C7.37137 19.6311 7.55245 19.5867 7.71557 19.5018C7.87869 19.417 8.0191 19.2943 8.12501 19.144C8.34777 18.8195 8.64638 18.5542 8.99491 18.3712C9.34345 18.1883 9.73137 18.0931 10.125 18.094C10.5064 18.0945 10.8824 18.1841 11.2232 18.3555C11.5639 18.5269 11.8598 18.7755 12.0875 19.0815C12.239 19.2851 12.4535 19.4329 12.6977 19.5018C12.9418 19.5708 13.202 19.5571 13.4375 19.4628C14.3436 19.0981 15.1871 18.5941 15.9375 17.969C16.126 17.8132 16.2603 17.6016 16.3209 17.3646C16.3815 17.1276 16.3655 16.8776 16.275 16.6503C16.128 16.3023 16.0639 15.9249 16.0878 15.5478C16.1117 15.1708 16.2228 14.8045 16.4125 14.4778C16.6023 14.1511 16.8653 13.873 17.1809 13.6654C17.4966 13.4578 17.8561 13.3264 18.2313 13.2815C18.4745 13.2479 18.7007 13.1377 18.8771 12.9669C19.0536 12.7961 19.171 12.5736 19.2125 12.3315C19.3129 11.8102 19.3673 11.2811 19.375 10.7503C19.3751 10.1904 19.3228 9.6317 19.2188 9.08155C19.1766 8.84486 19.0609 8.62749 18.8881 8.46031C18.7153 8.29314 18.4942 8.18466 18.2563 8.1503ZM13.125 10.7503C13.125 11.3684 12.9417 11.9726 12.5984 12.4865C12.255 13.0004 11.7669 13.4009 11.1959 13.6374C10.6249 13.8739 9.99655 13.9358 9.39036 13.8153C8.78417 13.6947 8.22734 13.397 7.79031 12.96C7.35327 12.523 7.05564 11.9661 6.93506 11.36C6.81448 10.7538 6.87637 10.1254 7.11289 9.55441C7.34941 8.98339 7.74995 8.49533 8.26386 8.15196C8.77776 7.80858 9.38195 7.6253 10 7.6253C10.8288 7.6253 11.6237 7.95454 12.2097 8.54059C12.7958 9.12664 13.125 9.9215 13.125 10.7503Z" fill="#2A9134"/>
</svg>
