<svg width="20" height="22" viewBox="0 0 20 22" fill="none" xmlns="http://www.w3.org/2000/svg">
    <g clip-path="url(#clip0_197_491)">
        <path fill-rule="evenodd" clip-rule="evenodd" d="M9.52812 1.1703C9.80719 0.958859 10.1928 0.958859 10.4719 1.1703L18.9727 7.61195C19.062 7.67969 19.1309 7.75867 19.1808 7.84398H19.375C19.8065 7.84398 20.1562 8.19375 20.1562 8.62523V10.969C20.1562 11.4005 19.8065 11.7502 19.375 11.7502H18.5938V18.0002H19.375C19.8065 18.0002 20.1562 18.35 20.1562 18.7815V21.1252C20.1562 21.5567 19.8065 21.9065 19.375 21.9065H0.625C0.193531 21.9065 -0.15625 21.5567 -0.15625 21.1252V18.7815C-0.15625 18.35 0.193531 18.0002 0.625 18.0002H1.40625V11.7502H0.625C0.193531 11.7502 -0.15625 11.4005 -0.15625 10.969V8.62523C-0.15625 8.19375 0.193531 7.84398 0.625 7.84398H0.819195C0.869102 7.75867 0.937953 7.67969 1.02737 7.61195L9.52812 1.1703ZM1.40625 9.40648V10.1877H18.5938V9.40648H1.40625ZM1.40625 19.5627V20.344H18.5938V19.5627H1.40625ZM4.53125 18.0002H2.96875V11.7502H4.53125V18.0002ZM6.09375 18.0002H7.65625V11.7502H6.09375V18.0002ZM9.21875 11.7502V18.0002H10.7812V11.7502H9.21875ZM12.3438 18.0002H13.9062V11.7502H12.3438V18.0002ZM15.4688 18.0002H17.0312V11.7502H15.4688V18.0002ZM10 7.06273C10.863 7.06273 11.5625 6.36318 11.5625 5.50023C11.5625 4.63729 10.863 3.93773 10 3.93773C9.13703 3.93773 8.4375 4.63729 8.4375 5.50023C8.4375 6.36318 9.13703 7.06273 10 7.06273Z" fill="#2A9134"/>
    </g>
    <defs>
        <clipPath id="clip0_197_491">
            <rect width="20" height="21.25" fill="white" transform="translate(0 0.5)"/>
        </clipPath>
    </defs>
</svg>
