<svg width="20" height="21" viewBox="0 0 20 21" fill="none" xmlns="http://www.w3.org/2000/svg">
    <g clip-path="url(#clip0_197_512)">
        <path d="M15.4391 7.61207C15.4679 8.38867 16.5824 8.38809 16.6109 7.61207V5.19629L15.4391 5.62461V7.61207Z" fill="#2A9134"/>
        <path d="M3.77373 4.08909L9.79673 6.29202C9.92669 6.33956 10.0692 6.33956 10.1992 6.2921L16.2262 4.08917C16.736 3.90343 16.7358 3.17413 16.2262 2.98851L10.2012 0.785654C10.0713 0.738115 9.92873 0.738115 9.7988 0.785654L3.7738 2.98851C3.26412 3.17421 3.26431 3.90347 3.77373 4.08909Z" fill="#2A9134"/>
        <path d="M5.96249 13.5324C5.96249 12.4365 5.07089 11.5449 3.97499 11.5449C1.3419 11.6448 1.34265 15.4204 3.97503 15.5199C5.07089 15.5199 5.96249 14.6283 5.96249 13.5324Z" fill="#2A9134"/>
        <path d="M18.0125 13.5324C18.0125 12.4365 17.1209 11.5449 16.025 11.5449C13.392 11.6448 13.3927 15.4204 16.0251 15.5199C17.1209 15.5199 18.0125 14.6283 18.0125 13.5324Z" fill="#2A9134"/>
        <path d="M8.01251 13.5324C8.01251 14.6283 8.90411 15.5199 10 15.5199C12.6331 15.42 12.6324 11.6445 9.99997 11.5449C8.90411 11.5449 8.01251 12.4365 8.01251 13.5324Z" fill="#2A9134"/>
        <path d="M16.025 15.5195C15.2403 15.5195 14.508 15.7482 13.8911 16.1422C14.6708 17.0435 15.1428 18.2152 15.1428 19.4945V20.7497H19.4141C19.7376 20.7497 20 20.4874 20 20.1638V19.4945C20 17.3027 18.2168 15.5195 16.025 15.5195Z" fill="#2A9134"/>
        <path d="M9.96667 15.5195C7.7587 15.5195 5.96237 17.3027 5.96237 19.4945V20.7497H13.971V19.4945C13.971 17.3027 12.1746 15.5195 9.96667 15.5195Z" fill="#2A9134"/>
        <path d="M3.975 15.5195C1.78316 15.5195 0 17.3027 0 19.4945V20.1638C0 20.4874 0.262344 20.7497 0.585938 20.7497H4.79051V19.4945C4.79051 18.2024 5.27199 17.02 6.06574 16.1152C5.45797 15.7379 4.74152 15.5195 3.975 15.5195Z" fill="#2A9134"/>
        <path d="M13.724 8.3468V6.25098L10.6015 7.39227C10.2146 7.53465 9.78032 7.53465 9.39376 7.39191L6.27606 6.25164V8.34742C6.27606 8.59344 6.42973 8.81324 6.66075 8.8977L9.79676 10.0446C9.92669 10.0921 10.0692 10.0921 10.1991 10.0447L13.3391 8.89715C13.5702 8.81269 13.724 8.59285 13.724 8.3468Z" fill="#2A9134"/>
    </g>
    <defs>
        <clipPath id="clip0_197_512">
            <rect width="20" height="20" fill="white" transform="translate(0 0.75)"/>
        </clipPath>
    </defs>
</svg>
