<svg width="20" height="21" viewBox="0 0 20 21" fill="none" xmlns="http://www.w3.org/2000/svg">
    <g clip-path="url(#clip0_197_539)">
        <path d="M18.2324 10.2329V4.11916C18.2324 4.02752 18.2073 3.94365 18.1699 3.86646C18.1925 3.804 18.2324 3.74889 18.2324 3.67971C18.2324 3.41822 18.0591 3.18818 17.8073 3.11607L9.60414 0.772324C9.49887 0.742559 9.38785 0.742559 9.28258 0.772324L1.07945 3.11607C0.827656 3.18818 0.654297 3.41822 0.654297 3.67971C0.654297 3.94119 0.827656 4.17123 1.07945 4.24334L4.16992 5.12631V5.81975C4.16992 6.48635 4.54016 7.0992 5.11293 7.38072C7.73934 8.67162 11.1462 8.67104 13.7738 7.38131C14.3466 7.09979 14.7168 6.48693 14.7168 5.81975V5.12631L17.0606 4.4567V10.2329C16.38 10.4756 15.8887 11.1199 15.8887 11.8828V13.0547C15.8887 13.3786 16.1508 13.6406 16.4746 13.6406H18.8184C19.1423 13.6406 19.4043 13.3786 19.4043 13.0547V11.8828C19.4043 11.1199 18.913 10.4757 18.2324 10.2329Z" fill="#2A9134"/>
        <path d="M14.2313 8.51082C12.7585 9.23465 11.0825 9.61687 9.38477 9.61687C7.68703 9.61687 6.01047 9.23406 4.53703 8.51023C4.39313 8.43949 4.27395 8.33465 4.14606 8.24121C4.27121 10.3502 5.4059 12.1398 7.00949 13.0566C7.00949 13.0566 7.83203 13.4452 8.08903 13.5182L8.09004 13.5163C8.50625 13.635 8.93477 13.7185 9.38473 13.7185C9.79672 13.7185 10.3836 13.6362 10.97 13.4197C11.2401 13.3236 11.7581 13.0578 11.7581 13.0578C13.3627 12.1413 14.4981 10.3512 14.6234 8.24145C14.4952 8.33504 14.3757 8.43992 14.2313 8.51082Z" fill="#2A9134"/>
        <path d="M9.38477 14.8907C8.91242 14.8907 8.45785 14.8179 8.01492 14.7109L9.38477 16.7657L10.7469 14.7129C10.3063 14.8186 9.85442 14.8907 9.38477 14.8907Z" fill="#2A9134"/>
        <path d="M12.7576 13.8398C12.7472 13.8468 12.7356 13.8516 12.7252 13.8586L12.2324 14.5978C12.2324 14.6251 9.98582 17.9852 9.9707 18.0079V20.7502H17.5879C17.9118 20.7502 18.1738 20.4881 18.1738 20.1642C18.1738 16.9645 15.8188 14.3379 12.7576 13.8398ZM14.0723 18.4064H12.9004C12.5765 18.4064 12.3145 18.1443 12.3145 17.8205C12.3145 17.4966 12.5765 17.2345 12.9004 17.2345H14.0723C14.3961 17.2345 14.6582 17.4966 14.6582 17.8205C14.6582 18.1443 14.3961 18.4064 14.0723 18.4064Z" fill="#2A9134"/>
        <path d="M6.03363 13.8512C6.0241 13.8448 6.01348 13.8404 6.00395 13.834C2.94602 14.3354 0.595703 16.9659 0.595703 20.1636C0.595703 20.4875 0.857773 20.7496 1.18164 20.7496H8.79883V18.0073C6.1434 14.0173 6.68527 14.8319 6.03363 13.8512Z" fill="#2A9134"/>
    </g>
    <defs>
        <clipPath id="clip0_197_539">
            <rect width="20" height="20" fill="white" transform="translate(0 0.75)"/>
        </clipPath>
    </defs>
</svg>
