<svg xmlns="http://www.w3.org/2000/svg" width="96" height="96" viewBox="0 0 96 96" fill="none">
    <g clip-path="url(#clip0_290_1233)">
        <path d="M73 96H71C67.14 96 64 92.86 64 89V80H55C51.14 80 48 76.86 48 73V71C48 67.14 51.14 64 55 64H64V55C64 51.14 67.14 48 71 48H73C76.86 48 80 51.14 80 55V64H89C92.86 64 96 67.14 96 71V73C96 76.86 92.86 80 89 80H80V89C80 92.86 76.86 96 73 96Z" fill="#008BF8"/>
        <path d="M36 40C47.0457 40 56 31.0457 56 20C56 8.9543 47.0457 0 36 0C24.9543 0 16 8.9543 16 20C16 31.0457 24.9543 40 36 40Z" fill="#008BF8"/>
        <path d="M40 73V71C40 62.728 46.728 56 55 56H56V55C56 52.792 56.508 50.712 57.368 48.82C55.648 48.34 53.872 48 52 48H20C8.956 48 0 56.956 0 68V81C0 82.656 1.344 84 3 84H44.88C41.9 81.256 40 77.36 40 73Z" fill="#008BF8"/>
    </g>
    <defs>
        <clipPath id="clip0_290_1233">
            <rect width="96" height="96" fill="white"/>
        </clipPath>
    </defs>
</svg>