<svg xmlns="http://www.w3.org/2000/svg" width="107" height="93" viewBox="0 0 107 93" fill="none">
    <g clip-path="url(#clip0_290_1398)">
        <path d="M88.4561 47.376V61.8242C88.4561 67.072 85.3754 71.7553 80.6054 73.9474C74.8086 76.6045 66.0304 79.4942 55.3311 79.4942C44.6317 79.4942 35.8536 76.6045 30.0236 73.9474C25.2867 71.7553 22.2061 67.072 22.2061 61.8242V47.376L45.7579 58.1706C48.7723 59.5656 52.0186 60.2631 55.3311 60.2631C58.6436 60.2631 61.8898 59.5656 64.9042 58.1706L88.4561 47.376Z" fill="#008BF8"/>
        <path d="M101.707 41.2959V62.8852C101.707 64.712 100.216 66.2066 98.394 66.2066C96.5722 66.2066 95.0815 64.712 95.0815 62.8852V44.3516L101.707 41.2959Z" fill="#008BF8"/>
        <path d="M48.5012 52.1368C50.6709 53.1299 52.9995 53.6281 55.3315 53.6281C57.6635 53.6281 59.9889 53.1332 62.1619 52.1368L104.466 32.7463C106.851 31.6535 108.332 29.3385 108.332 26.7046C108.332 24.0707 106.851 21.7524 104.466 20.6596L62.1619 1.27243C57.8192 -0.71711 52.8472 -0.71711 48.5045 1.27243L6.19723 20.6563C3.81223 21.7524 2.33154 24.0674 2.33154 26.7013C2.33154 29.3352 3.81223 31.6502 6.19723 32.7463L48.5012 52.1368Z" fill="#008BF8"/>
    </g>
    <defs>
        <clipPath id="clip0_290_1398">
            <rect width="106" height="93" fill="white" transform="translate(0.299805)"/>
        </clipPath>
    </defs>
</svg>