<svg xmlns="http://www.w3.org/2000/svg" width="80" height="80" viewBox="0 0 80 80" fill="none">
    <g clip-path="url(#clip0_290_1386)">
        <path d="M55.0841 0H24.9161C11.1553 0 0 11.1553 0 24.9159V55.0839C0 68.8447 11.1553 80 24.9161 80H55.0841C68.8447 80 80 68.8447 80 55.0841V24.9159C80 11.1553 68.8447 0 55.0841 0ZM22.3528 60.57C20.253 60.57 18.5506 58.8677 18.5506 56.7678C18.5506 54.668 20.253 52.9656 22.3528 52.9656C24.4527 52.9656 26.155 54.668 26.155 56.7678C26.1548 58.8677 24.4527 60.57 22.3528 60.57ZM22.3528 43.8022C20.253 43.8022 18.5506 42.0998 18.5506 40C18.5506 37.9002 20.253 36.1978 22.3528 36.1978C24.4527 36.1978 26.155 37.9002 26.155 40C26.155 42.0998 24.4527 43.8022 22.3528 43.8022ZM22.3528 27.0344C20.253 27.0344 18.5506 25.332 18.5506 23.2322C18.5506 21.1323 20.253 19.43 22.3528 19.43C24.4527 19.43 26.155 21.1323 26.155 23.2322C26.1548 25.332 24.4527 27.0344 22.3528 27.0344ZM57.4494 60.7678H36.4486C34.2395 60.7678 32.4486 58.977 32.4486 56.7678C32.4486 54.5586 34.2395 52.7678 36.4486 52.7678H57.4494C59.6584 52.7678 61.4494 54.5586 61.4494 56.7678C61.4494 58.977 59.6586 60.7678 57.4494 60.7678ZM57.4494 44H36.4486C34.2395 44 32.4486 42.2092 32.4486 40C32.4486 37.7908 34.2395 36 36.4486 36H57.4494C59.6584 36 61.4494 37.7908 61.4494 40C61.4494 42.2092 59.6586 44 57.4494 44ZM57.4494 27.2322H36.4486C34.2395 27.2322 32.4486 25.4414 32.4486 23.2322C32.4486 21.023 34.2395 19.2322 36.4486 19.2322H57.4494C59.6584 19.2322 61.4494 21.023 61.4494 23.2322C61.4494 25.4414 59.6586 27.2322 57.4494 27.2322Z" fill="#008BF8"/>
    </g>
    <defs>
        <clipPath id="clip0_290_1386">
            <rect width="80" height="80" fill="white"/>
        </clipPath>
    </defs>
</svg>