<svg xmlns="http://www.w3.org/2000/svg" width="96" height="96" viewBox="0 0 96 96" fill="none">
    <path d="M24.6309 74.2931V80.6499H26.6682V74.2931C26.6682 68.7408 32.0369 60.8055 41.7757 51.9427C43.3524 50.4971 44.0009 48.1618 43.1204 46.0138C44.567 47.664 46.207 48.7337 46.207 52.2482C46.0949 52.8493 47.236 61.3961 39.7689 68.4862C35.3885 72.6427 30.0809 77.9197 28.3593 80.6497H67.6407C65.9191 77.9197 60.6115 72.6425 56.2312 68.4862C48.7029 61.3453 49.7725 52.1463 49.793 52.2482C49.793 49.8238 50.9746 48.1936 52.6962 46.5232C52.1064 48.6101 52.8093 50.6454 54.2244 51.9429C63.9633 60.8057 69.3318 68.7412 69.3318 74.2933V80.6501H71.3692V74.2933C71.3692 66.2964 62.4147 56.639 55.5997 50.4452C54.1632 49.131 54.1632 46.8697 55.5997 45.5555C62.4149 39.3617 71.3692 29.6941 71.3692 21.7074V15.3506H69.3318V21.7074C69.3318 24.0403 68.3639 26.8111 66.5405 29.8876H29.4595C27.6361 26.8111 26.6682 24.0403 26.6682 21.7074V15.3506H24.6309V21.7074C24.6309 29.6941 33.5853 39.3617 40.4004 45.5555C41.8368 46.8697 41.8368 49.131 40.4004 50.4452C33.5853 56.6388 24.6309 66.296 24.6309 74.2931Z" fill="#008BF8"/>
    <path d="M75.598 0.121094H20.4018C19.3447 0.121094 18.4878 0.978156 18.4878 2.03509V7.24103C18.4878 8.29797 19.3447 9.15503 20.4018 9.15503H21.7629V10.439C21.7629 12.0245 23.0482 13.3098 24.6339 13.3098H71.3662C72.9517 13.3098 74.2372 12.0245 74.2372 10.439V9.15503H75.5982C76.6554 9.15503 77.5122 8.29797 77.5122 7.24103V2.03509C77.5122 0.978156 76.6552 0.121094 75.598 0.121094Z" fill="#008BF8"/>
    <path d="M75.5984 86.8454H74.2374V85.5614C74.2374 83.9759 72.952 82.6904 71.3664 82.6904H24.6339C23.0484 82.6904 21.7629 83.9759 21.7629 85.5614V86.8454H20.4018C19.3447 86.8454 18.4878 87.7025 18.4878 88.7594V93.9654C18.4878 95.0223 19.3447 95.8794 20.4018 95.8794H75.5982C76.6554 95.8794 77.5122 95.0223 77.5122 93.9654V88.7594C77.5124 87.7025 76.6554 86.8454 75.5984 86.8454Z" fill="#008BF8"/>
</svg>