<svg xmlns="http://www.w3.org/2000/svg" width="96" height="96" viewBox="0 0 96 96" fill="none">
    <path fill-rule="evenodd" clip-rule="evenodd" d="M28.636 12.3232L10.552 17.1672C6.81597 18.1712 4.59997 22.0072 5.60397 25.7432L21.648 85.6312C22.648 89.3633 26.488 91.5792 30.224 90.5792L50.372 85.1792H39.636C33.564 85.1792 28.636 80.2552 28.636 74.1792V12.3232Z" fill="#008BF8"/>
    <path fill-rule="evenodd" clip-rule="evenodd" d="M90.636 74.1797V12.1797C90.636 8.31569 87.504 5.17969 83.636 5.17969H39.636C35.772 5.17969 32.636 8.31569 32.636 12.1797V74.1797C32.636 78.0477 35.772 81.1797 39.636 81.1797H83.636C87.504 81.1797 90.636 78.0477 90.636 74.1797ZM49.636 69.1797H73.636C75.292 69.1797 76.636 67.8357 76.636 66.1797C76.636 64.5237 75.292 63.1797 73.636 63.1797H49.636C47.98 63.1797 46.636 64.5237 46.636 66.1797C46.636 67.8357 47.98 69.1797 49.636 69.1797ZM53.636 59.1797H69.636C71.292 59.1797 72.636 57.8357 72.636 56.1797C72.636 54.5237 71.292 53.1797 69.636 53.1797H53.636C51.98 53.1797 50.636 54.5237 50.636 56.1797C50.636 57.8357 51.98 59.1797 53.636 59.1797ZM65.756 32.1837C68.656 30.6877 70.636 27.6637 70.636 24.1797C70.636 19.2117 66.604 15.1797 61.636 15.1797C56.672 15.1797 52.636 19.2117 52.636 24.1797C52.636 27.6637 54.62 30.6877 57.516 32.1837C57.092 32.1997 56.676 32.3077 56.296 32.4957C56.296 32.4957 54.448 33.4197 52.868 34.2117C50.496 35.3957 49 37.8197 49 40.4717V43.9997C49 45.6557 50.344 46.9997 52 46.9997H72C73.656 46.9997 75 45.6557 75 43.9997V40.6037C75 37.8317 73.368 35.3237 70.836 34.2037C69.028 33.4037 66.852 32.4357 66.852 32.4357C66.508 32.2837 66.136 32.1997 65.756 32.1837Z" fill="#008BF8"/>
</svg>