<svg xmlns="http://www.w3.org/2000/svg" width="70" height="81" viewBox="0 0 70 81" fill="none">
    <path d="M6.3623 8.62436C6.36708 7.97158 6.59061 7.33924 6.99714 6.82847C7.40367 6.3177 7.96973 5.95799 8.60481 5.80686L34.4798 0.0568632C34.8971 -0.0293711 35.3275 -0.0293711 35.7448 0.0568632L61.6198 5.80686C62.1828 5.93499 62.6942 6.22966 63.0874 6.65253C63.4805 7.07539 63.7373 7.60684 63.8241 8.17767C63.911 8.7485 63.824 9.33227 63.5744 9.85294C63.3248 10.3736 62.9242 10.8071 62.4248 11.0969V19.5206L64.8686 21.9931C65.0765 22.1866 65.2188 22.4403 65.2755 22.7187C65.3322 22.997 65.3005 23.2862 65.1848 23.5456C65.077 23.8081 64.8938 24.0328 64.6585 24.1915C64.4231 24.3501 64.1461 24.4354 63.8623 24.4369H58.0835C57.9052 24.4325 57.7295 24.3934 57.566 24.3219C57.404 24.2706 57.2563 24.182 57.1348 24.0631V24.0344C57.12 24.0331 57.1061 24.0266 57.0956 24.0161C57.0851 24.0056 57.0786 23.9917 57.0773 23.9769H57.0485C56.9297 23.8554 56.841 23.7077 56.7898 23.5456C56.7213 23.3913 56.6823 23.2255 56.6748 23.0569V22.9419C56.6823 22.7732 56.7213 22.6074 56.7898 22.4531C56.841 22.2911 56.9297 22.1433 57.0485 22.0219H57.0773C57.0773 21.9931 57.0773 21.9931 57.106 21.9931L59.5498 19.5206V11.9019L52.3623 13.4831V25.8744C52.3574 28.2955 51.8429 30.6885 50.8522 32.8977C49.8615 35.1069 48.4169 37.0828 46.6123 38.6969V42.2044C46.7127 42.2301 46.8093 42.2688 46.8998 42.3194L35.1123 53.5319L23.3248 42.3194C23.4153 42.2688 23.5119 42.2301 23.6123 42.2044V38.6969C21.8077 37.0828 20.3631 35.1069 19.3724 32.8977C18.3817 30.6885 17.8672 28.2955 17.8623 25.8744V13.4831L8.60481 11.4419C7.96973 11.2907 7.40367 10.931 6.99714 10.4203C6.59061 9.90949 6.36708 9.27715 6.3623 8.62436Z" fill="#008BF8"/>
    <path d="M69.6124 74.7493V77.6243C69.6124 78.3868 69.3095 79.1181 68.7703 79.6572C68.2312 80.1964 67.4999 80.4993 66.7374 80.4993H3.48741C2.72491 80.4993 1.99364 80.1964 1.45447 79.6572C0.915307 79.1181 0.612405 78.3868 0.612405 77.6243V74.7493C0.601453 70.2163 1.48745 65.7259 3.21936 61.5367C4.95127 57.3476 7.49487 53.5425 10.7037 50.3406C12.8109 48.2452 15.1781 46.4287 17.7474 44.9355L33.1287 59.5693C33.6599 60.0856 34.3716 60.3745 35.1124 60.3745C35.8533 60.3745 36.5649 60.0856 37.0962 59.5693L52.4487 44.9355C57.6663 47.9708 61.9969 52.321 65.0086 57.5523C68.0202 62.7836 69.6076 68.713 69.6124 74.7493Z" fill="#008BF8"/>
</svg>