<svg xmlns="http://www.w3.org/2000/svg" width="92" height="80" viewBox="0 0 92 80" fill="none">
    <g clip-path="url(#clip0_290_1411)">
        <path d="M70.9355 56.875C75.6472 56.875 79.4668 53.0554 79.4668 48.3438C79.4668 43.6321 75.6472 39.8125 70.9355 39.8125C66.2239 39.8125 62.4043 43.6321 62.4043 48.3438C62.4043 53.0554 66.2239 56.875 70.9355 56.875Z" fill="#008BF8"/>
        <path d="M19.748 56.875C24.4597 56.875 28.2793 53.0554 28.2793 48.3438C28.2793 43.6321 24.4597 39.8125 19.748 39.8125C15.0364 39.8125 11.2168 43.6321 11.2168 48.3438C11.2168 53.0554 15.0364 56.875 19.748 56.875Z" fill="#008BF8"/>
        <path d="M59.5605 20.0002L47.5829 25.1323C46.8734 25.4378 46.118 25.5933 45.3418 25.5933C44.5656 25.5933 43.8102 25.4378 43.0979 25.1309L31.123 19.999V25.5933C31.123 26.6708 31.7312 27.6553 32.6949 28.1371L44.0699 33.8246C44.4698 34.0246 44.9058 34.1246 45.3418 34.1246C45.7778 34.1246 46.2138 34.0246 46.6137 33.8246L57.9887 28.1371C58.9524 27.6553 59.5605 26.6708 59.5605 25.5933V20.0002Z" fill="#008BF8"/>
        <path d="M66.3686 8.76147L46.4624 0.230217C45.7459 -0.0780411 44.9377 -0.0780411 44.2212 0.230217L24.315 8.76147C23.2694 9.20858 22.5918 10.2375 22.5918 11.3747C22.5918 12.5119 23.2694 13.5409 24.315 13.988L44.2212 22.5192C44.5795 22.6733 44.9599 22.7497 45.3418 22.7497C45.7236 22.7497 46.1041 22.6733 46.4624 22.5192L62.4043 15.687V31.281C62.4043 32.8514 63.6776 34.1247 65.248 34.1247C66.8185 34.1247 68.0918 32.8514 68.0918 31.281V11.3747C68.0918 10.2375 67.4142 9.20858 66.3686 8.76147Z" fill="#008BF8"/>
        <path d="M31.5302 59.4553C29.9801 57.868 27.8244 56.875 25.4355 56.875H19.748H14.0605C9.35614 56.875 5.5293 60.7018 5.5293 65.4062V68.25C5.5293 69.8218 6.80121 71.0938 8.37305 71.0938H25.4355C25.4355 66.2777 27.8558 62.0288 31.5302 59.4553Z" fill="#008BF8"/>
        <path d="M76.623 56.875H70.9355H65.248C62.8592 56.875 60.7035 57.868 59.1533 59.4553C62.8278 62.0288 65.248 66.2777 65.248 71.0938H82.3105C83.8824 71.0938 85.1543 69.8218 85.1543 68.25V65.4062C85.1543 60.7018 81.3274 56.875 76.623 56.875Z" fill="#008BF8"/>
        <path d="M59.5605 79.625H31.123C29.5525 79.625 28.2793 78.3518 28.2793 76.7812V71.0938C28.2793 64.8115 33.3721 59.7188 39.6543 59.7188H51.0293C57.3115 59.7188 62.4043 64.8115 62.4043 71.0938V76.7812C62.4043 78.3518 61.1311 79.625 59.5605 79.625Z" fill="#008BF8"/>
        <path d="M45.3418 59.7188C51.624 59.7188 56.7168 54.626 56.7168 48.3438C56.7168 42.0615 51.624 36.9688 45.3418 36.9688C39.0596 36.9688 33.9668 42.0615 33.9668 48.3438C33.9668 54.626 39.0596 59.7188 45.3418 59.7188Z" fill="#008BF8"/>
    </g>
    <defs>
        <clipPath id="clip0_290_1411">
            <rect width="91" height="79.625" fill="white" transform="translate(0.600098)"/>
        </clipPath>
    </defs>
</svg>