<svg xmlns="http://www.w3.org/2000/svg" width="89" height="96" viewBox="0 0 89 96" fill="none">
    <g clip-path="url(#clip0_290_1247)">
        <path d="M38.4998 74.084C38.2358 74.344 38.0518 74.676 37.9678 75.04L33.6078 93.544C33.4478 94.216 33.6518 94.928 34.1398 95.416C34.5198 95.792 35.0318 96 35.5558 96C35.7078 96 35.8638 95.984 36.0158 95.944L54.5158 91.584C54.8758 91.5 55.2078 91.316 55.4718 91.052L81.6358 64.888L64.6638 47.916L38.4998 74.084Z" fill="#008BF8"/>
        <path d="M93.6562 41.5558L88.0002 35.8998C84.9762 32.8758 79.7082 32.8758 76.6842 35.8998L68.9082 43.6758L85.8802 60.6478L93.6562 52.8718C95.1682 51.3598 96.0002 49.3518 96.0002 47.2158C96.0002 45.0758 95.1682 43.0678 93.6562 41.5558Z" fill="#008BF8"/>
        <path d="M27.36 76H10C8.896 76 8 75.104 8 74V64H38C40.208 64 42 62.208 42 60V44H58.28C60.488 44 62.28 42.208 62.28 40C62.28 37.792 60.488 36 58.28 36H42V24H68V28C68 30.208 69.792 32 72 32C74.208 32 76 30.208 76 28V9C76 4.036 71.964 0 67 0H9C4.036 0 0 4.036 0 9V74C0 79.512 4.488 84 10 84H27.36C29.568 84 31.36 82.208 31.36 80C31.36 77.792 29.568 76 27.36 76ZM34 56H8V44H34V56ZM34 36H8V24H34V36Z" fill="#008BF8"/>
    </g>
    <defs>
        <clipPath id="clip0_290_1247">
            <rect width="96" height="96" fill="white"/>
        </clipPath>
    </defs>
</svg>