<svg width="60" height="60" viewBox="0 0 60 60" fill="none" xmlns="http://www.w3.org/2000/svg">
<path d="M27.9375 30.6563H22.5375C22.2391 30.6563 21.953 30.7748 21.742 30.9858C21.531 31.1967 21.4125 31.4829 21.4125 31.7813C21.4125 32.0796 21.531 32.3658 21.742 32.5767C21.953 32.7877 22.2391 32.9062 22.5375 32.9062H27.9375C28.2359 32.9062 28.522 32.7877 28.733 32.5767C28.944 32.3658 29.0625 32.0796 29.0625 31.7813C29.0625 31.4829 28.944 31.1967 28.733 30.9858C28.522 30.7748 28.2359 30.6563 27.9375 30.6563Z" fill="#00598F"/>
<path d="M35.55 25.8188C35.5512 25.6707 35.5228 25.5239 35.4667 25.3869C35.4106 25.2499 35.3277 25.1254 35.2231 25.0207C35.1184 24.916 34.9939 24.8332 34.8569 24.7771C34.7199 24.7209 34.5731 24.6926 34.425 24.6938H22.5375C22.3895 24.6926 22.2427 24.7209 22.1056 24.7771C21.9686 24.8332 21.8442 24.916 21.7395 25.0207C21.6348 25.1254 21.5519 25.2499 21.4958 25.3869C21.4397 25.5239 21.4114 25.6707 21.4125 25.8188C21.4134 26.1168 21.5322 26.4025 21.743 26.6133C21.9538 26.824 22.2394 26.9429 22.5375 26.9438H34.425C34.7231 26.9429 35.0087 26.824 35.2195 26.6133C35.4303 26.4025 35.5491 26.1168 35.55 25.8188Z" fill="#00598F"/>
<path d="M22.5375 20.9625H34.425C34.5728 20.9625 34.719 20.9334 34.8555 20.8769C34.992 20.8203 35.116 20.7375 35.2205 20.633C35.325 20.5285 35.4078 20.4045 35.4644 20.268C35.5209 20.1315 35.55 19.9852 35.55 19.8375C35.55 19.6898 35.5209 19.5435 35.4644 19.407C35.4078 19.2705 35.325 19.1465 35.2205 19.042C35.116 18.9375 34.992 18.8547 34.8555 18.7981C34.719 18.7416 34.5728 18.7125 34.425 18.7125H22.5375C22.3898 18.7125 22.2435 18.7416 22.107 18.7981C21.9705 18.8547 21.8465 18.9375 21.742 19.042C21.6376 19.1465 21.5547 19.2705 21.4981 19.407C21.4416 19.5435 21.4125 19.6898 21.4125 19.8375C21.4125 19.9852 21.4416 20.1315 21.4981 20.268C21.5547 20.4045 21.6376 20.5285 21.742 20.633C21.8465 20.7375 21.9705 20.8203 22.107 20.8769C22.2435 20.9334 22.3898 20.9625 22.5375 20.9625Z" fill="#00598F"/>
<path d="M30 1.875C24.4374 1.875 18.9997 3.5245 14.3746 6.61492C9.74947 9.70533 6.14462 14.0979 4.0159 19.237C1.88719 24.3762 1.33022 30.0312 2.41543 35.4869C3.50064 40.9426 6.17928 45.954 10.1126 49.8874C14.046 53.8207 19.0574 56.4994 24.5131 57.5846C29.9688 58.6698 35.6238 58.1128 40.763 55.9841C45.9022 53.8554 50.2947 50.2505 53.3851 45.6254C56.4755 41.0003 58.125 35.5626 58.125 30C58.1223 22.5416 55.1583 15.3895 49.8844 10.1156C44.6105 4.84173 37.4584 1.8777 30 1.875ZM29.5875 42.225C29.2622 42.9397 29.0412 43.6975 28.9313 44.475H21.3563C19.8696 44.4742 18.4442 43.8833 17.393 42.8321C16.3418 41.7809 15.7508 40.3554 15.75 38.8688V18.7313C15.7508 17.2446 16.3418 15.8191 17.393 14.7679C18.4442 13.7167 19.8696 13.1258 21.3563 13.125H35.6063C37.0929 13.1258 38.5184 13.7167 39.5696 14.7679C40.6208 15.8191 41.2117 17.2446 41.2125 18.7313V29.25C40.5825 28.6333 39.8095 28.1823 38.9625 27.9375C37.6977 27.5622 36.3407 27.6488 35.1338 28.1818C33.9269 28.7147 32.9488 29.6594 32.3742 30.847C31.7995 32.0346 31.6658 33.3878 31.9968 34.6649C32.3278 35.942 33.1021 37.0598 34.1813 37.8188C32.1457 38.6504 30.5032 40.2259 29.5875 42.225ZM41.2688 33.2813C41.2688 34.0489 41.0411 34.7993 40.6147 35.4376C40.1882 36.0758 39.582 36.5733 38.8728 36.8671C38.1636 37.1608 37.3832 37.2377 36.6303 37.0879C35.8774 36.9382 35.1859 36.5685 34.6431 36.0257C34.1003 35.4829 33.7306 34.7913 33.5808 34.0384C33.4311 33.2856 33.5079 32.5052 33.8017 31.796C34.0955 31.0868 34.5929 30.4806 35.2312 30.0541C35.8695 29.6276 36.6199 29.4 37.3875 29.4C38.4163 29.4021 39.4023 29.8116 40.1297 30.5391C40.8571 31.2665 41.2667 32.2525 41.2688 33.2813ZM43.125 46.875H31.65C31.3519 46.8741 31.0663 46.7553 30.8555 46.5445C30.6447 46.3337 30.5259 46.0481 30.525 45.75C30.525 43.93 31.248 42.1845 32.535 40.8975C33.822 39.6105 35.5675 38.8875 37.3875 38.8875C39.2076 38.8875 40.9531 39.6105 42.24 40.8975C43.527 42.1845 44.25 43.93 44.25 45.75C44.2491 46.0481 44.1303 46.3337 43.9196 46.5445C43.7088 46.7553 43.4231 46.8741 43.125 46.875Z" fill="#00598F"/>
</svg>
